<?xml version="1.0" standalone="no"?>
<svg xmlns="http://www.w3.org/2000/svg" xmlns:xlink="http://www.w3.org/1999/xlink" width="344pt" height="326pt" viewBox="0.00 0.00 344.47 326.47">
<g id="graph0" class="graph" transform="translate(48.270507328139445,341.04657385558477) scale(0.9012504626108304)" data-name="G">

<polygon fill="white" stroke="none" points="-4,4 -4,-322.47 340.47,-322.47 340.47,4 -4,4"/>




<!-- App -->
<g id="node1" class="node" pointer-events="visible" data-name="App">

<ellipse fill="none" stroke="lightskyblue" cx="168.23" cy="-159.23" rx="27.84" ry="27.84"/>
<polyline fill="none" stroke="lightskyblue" points="186.53,-179.98 149.93,-179.98"/>
<polyline fill="none" stroke="lightskyblue" points="186.53,-138.48 149.93,-138.48"/>
<text text-anchor="middle" x="168.23" y="-155.03" font-family="Times,serif" font-size="14.00">App</text>
</g>
<!-- Part_I -->
<g id="node2" class="node" pointer-events="visible" data-name="Part_I">

<polygon fill="none" stroke="lightgreen" points="219.14,-228.14 170.18,-210.14 219.14,-192.14 268.11,-210.14 219.14,-228.14"/>
<polyline fill="none" stroke="lightgreen" points="181.44,-214.29 181.44,-206"/>
<polyline fill="none" stroke="lightgreen" points="207.88,-196.29 230.41,-196.29"/>
<polyline fill="none" stroke="lightgreen" points="256.85,-206 256.85,-214.29"/>
<polyline fill="none" stroke="lightgreen" points="230.41,-224 207.88,-224"/>
<text text-anchor="middle" x="219.14" y="-205.94" font-family="Times,serif" font-size="14.00">Part_I</text>
</g>
<!-- App&#45;&gt;Part_I -->
<g id="edge1" class="edge" data-name="App-&gt;Part_I">

<path fill="none" stroke="black" d="M188.06,-179.06C191.21,-182.21 194.47,-185.47 197.65,-188.65"/>
<polygon fill="black" stroke="black" points="195.12,-191.07 204.66,-195.66 200.07,-186.12 195.12,-191.07"/>
</g>
<!-- Part_II -->
<g id="node3" class="node" pointer-events="visible" data-name="Part_II">

<polygon fill="none" stroke="lightgreen" points="117.32,-228.14 63.76,-210.14 117.32,-192.14 170.88,-210.14 117.32,-228.14"/>
<polyline fill="none" stroke="lightgreen" points="75.13,-213.97 75.13,-206.32"/>
<polyline fill="none" stroke="lightgreen" points="105.95,-195.97 128.7,-195.97"/>
<polyline fill="none" stroke="lightgreen" points="159.51,-206.32 159.51,-213.97"/>
<polyline fill="none" stroke="lightgreen" points="128.7,-224.32 105.95,-224.32"/>
<text text-anchor="middle" x="117.32" y="-205.94" font-family="Times,serif" font-size="14.00">Part_II</text>
</g>
<!-- App&#45;&gt;Part_II -->
<g id="edge2" class="edge" data-name="App-&gt;Part_II">

<path fill="none" stroke="black" d="M148.4,-179.06C145.32,-182.15 142.12,-185.35 138.99,-188.47"/>
<polygon fill="black" stroke="black" points="136.71,-185.81 132.11,-195.36 141.66,-190.76 136.71,-185.81"/>
</g>
<!-- Part_III -->
<g id="node4" class="node" pointer-events="visible" data-name="Part_III">

<polygon fill="none" stroke="lightgreen" points="117.32,-126.32 59.16,-108.32 117.32,-90.32 175.48,-108.32 117.32,-126.32"/>
<polyline fill="none" stroke="lightgreen" points="70.63,-111.87 70.63,-104.77"/>
<polyline fill="none" stroke="lightgreen" points="105.86,-93.87 128.78,-93.87"/>
<polyline fill="none" stroke="lightgreen" points="164.02,-104.77 164.02,-111.87"/>
<polyline fill="none" stroke="lightgreen" points="128.78,-122.77 105.86,-122.77"/>
<text text-anchor="middle" x="117.32" y="-104.12" font-family="Times,serif" font-size="14.00">Part_III</text>
</g>
<!-- App&#45;&gt;Part_III -->
<g id="edge3" class="edge" data-name="App-&gt;Part_III">

<path fill="none" stroke="black" d="M148.4,-139.4C145.47,-136.47 142.42,-133.42 139.44,-130.44"/>
<polygon fill="black" stroke="black" points="141.97,-128.02 132.42,-123.42 137.02,-132.97 141.97,-128.02"/>
</g>
<!-- Part_IV -->
<g id="node5" class="node" pointer-events="visible" data-name="Part_IV">

<polygon fill="none" stroke="lightgreen" points="219.14,-126.32 160.45,-108.32 219.14,-90.32 277.84,-108.32 219.14,-126.32"/>
<polyline fill="none" stroke="lightgreen" points="171.92,-111.84 171.92,-104.8"/>
<polyline fill="none" stroke="lightgreen" points="207.67,-93.84 230.62,-93.84"/>
<polyline fill="none" stroke="lightgreen" points="266.36,-104.8 266.36,-111.84"/>
<polyline fill="none" stroke="lightgreen" points="230.62,-122.8 207.67,-122.8"/>
<text text-anchor="middle" x="219.14" y="-104.12" font-family="Times,serif" font-size="14.00">Part_IV</text>
</g>
<!-- App&#45;&gt;Part_IV -->
<g id="edge4" class="edge" data-name="App-&gt;Part_IV">

<path fill="none" stroke="black" d="M188.06,-139.4C191,-136.47 194.04,-133.42 197.02,-130.44"/>
<polygon fill="black" stroke="black" points="199.45,-132.97 204.05,-123.42 194.5,-128.02 199.45,-132.97"/>
</g>
<!-- 1 -->
<g id="node6" class="node" pointer-events="visible" data-name="1">

<ellipse fill="none" stroke="black" cx="309.47" cy="-187.33" rx="27" ry="18"/>
<text text-anchor="middle" x="309.47" y="-183.13" font-family="Times,serif" font-size="14.00">1</text>
</g>
<!-- Part_I&#45;&gt;1 -->
<g id="edge5" class="edge" data-name="Part_I-&gt;1">

<path fill="none" stroke="black" d="M248.97,-202.61C256.65,-200.67 265.01,-198.56 272.99,-196.54"/>
<polygon fill="black" stroke="black" points="273.6,-200 282.44,-194.15 271.89,-193.21 273.6,-200"/>
</g>
<!-- 2 -->
<g id="node7" class="node" pointer-events="visible" data-name="2">

<ellipse fill="none" stroke="black" cx="287.96" cy="-239.24" rx="27" ry="18"/>
<text text-anchor="middle" x="287.96" y="-235.04" font-family="Times,serif" font-size="14.00">2</text>
</g>
<!-- Part_I&#45;&gt;2 -->
<g id="edge6" class="edge" data-name="Part_I-&gt;2">

<path fill="none" stroke="black" d="M242.44,-219.99C246.26,-221.6 250.27,-223.3 254.27,-224.99"/>
<polygon fill="black" stroke="black" points="252.72,-228.14 263.3,-228.81 255.45,-221.69 252.72,-228.14"/>
</g>
<!-- 3 -->
<g id="node8" class="node" pointer-events="visible" data-name="3">

<ellipse fill="none" stroke="black" cx="248.24" cy="-278.96" rx="27" ry="18"/>
<text text-anchor="middle" x="248.24" y="-274.76" font-family="Times,serif" font-size="14.00">3</text>
</g>
<!-- Part_I&#45;&gt;3 -->
<g id="edge7" class="edge" data-name="Part_I-&gt;3">

<path fill="none" stroke="black" d="M225.89,-226.11C229.05,-233.59 232.92,-242.72 236.53,-251.28"/>
<polygon fill="black" stroke="black" points="233.21,-252.4 240.32,-260.25 239.65,-249.68 233.21,-252.4"/>
</g>
<!-- 4 -->
<g id="node9" class="node" pointer-events="visible" data-name="4">

<ellipse fill="none" stroke="black" cx="196.33" cy="-300.47" rx="27" ry="18"/>
<text text-anchor="middle" x="196.33" y="-296.27" font-family="Times,serif" font-size="14.00">4</text>
</g>
<!-- Part_I&#45;&gt;4 -->
<g id="edge8" class="edge" data-name="Part_I-&gt;4">

<path fill="none" stroke="black" d="M214.96,-226.71C211.81,-239.17 207.42,-256.56 203.69,-271.32"/>
<polygon fill="black" stroke="black" points="200.3,-270.44 201.25,-280.99 207.09,-272.15 200.3,-270.44"/>
</g>
<!-- 5 -->
<g id="node10" class="node" pointer-events="visible" data-name="5">

<ellipse fill="none" stroke="black" cx="140.14" cy="-300.47" rx="27" ry="18"/>
<text text-anchor="middle" x="140.14" y="-296.27" font-family="Times,serif" font-size="14.00">5</text>
</g>
<!-- Part_II&#45;&gt;5 -->
<g id="edge9" class="edge" data-name="Part_II-&gt;5">

<path fill="none" stroke="black" d="M121.61,-227.13C124.75,-239.55 129.08,-256.7 132.77,-271.3"/>
<polygon fill="black" stroke="black" points="129.34,-272.01 135.18,-280.85 136.13,-270.29 129.34,-272.01"/>
</g>
<!-- 6 -->
<g id="node11" class="node" pointer-events="visible" data-name="6">

<ellipse fill="none" stroke="black" cx="88.23" cy="-278.96" rx="27" ry="18"/>
<text text-anchor="middle" x="88.23" y="-274.76" font-family="Times,serif" font-size="14.00">6</text>
</g>
<!-- Part_II&#45;&gt;6 -->
<g id="edge10" class="edge" data-name="Part_II-&gt;6">

<path fill="none" stroke="black" d="M110.57,-226.11C107.41,-233.59 103.55,-242.72 99.93,-251.28"/>
<polygon fill="black" stroke="black" points="96.81,-249.68 96.14,-260.25 103.26,-252.4 96.81,-249.68"/>
</g>
<!-- 7 -->
<g id="node12" class="node" pointer-events="visible" data-name="7">

<ellipse fill="none" stroke="black" cx="48.5" cy="-239.24" rx="27" ry="18"/>
<text text-anchor="middle" x="48.5" y="-235.04" font-family="Times,serif" font-size="14.00">7</text>
</g>
<!-- Part_II&#45;&gt;7 -->
<g id="edge11" class="edge" data-name="Part_II-&gt;7">

<path fill="none" stroke="black" d="M93.25,-220.32C89.65,-221.84 85.89,-223.43 82.14,-225.02"/>
<polygon fill="black" stroke="black" points="80.99,-221.7 73.14,-228.82 83.71,-228.15 80.99,-221.7"/>
</g>
<!-- 8 -->
<g id="node13" class="node" pointer-events="visible" data-name="8">

<ellipse fill="none" stroke="black" cx="27" cy="-187.33" rx="27" ry="18"/>
<text text-anchor="middle" x="27" y="-183.13" font-family="Times,serif" font-size="14.00">8</text>
</g>
<!-- Part_II&#45;&gt;8 -->
<g id="edge12" class="edge" data-name="Part_II-&gt;8">

<path fill="none" stroke="black" d="M85.98,-202.23C78.74,-200.4 70.98,-198.44 63.54,-196.56"/>
<polygon fill="black" stroke="black" points="64.62,-193.22 54.07,-194.17 62.91,-200.01 64.62,-193.22"/>
</g>
<!-- 9 -->
<g id="node14" class="node" pointer-events="visible" data-name="9">

<ellipse fill="none" stroke="black" cx="27" cy="-131.14" rx="27" ry="18"/>
<text text-anchor="middle" x="27" y="-126.94" font-family="Times,serif" font-size="14.00">9</text>
</g>
<!-- Part_III&#45;&gt;9 -->
<g id="edge13" class="edge" data-name="Part_III-&gt;9">

<path fill="none" stroke="black" d="M84.46,-116.62C77.74,-118.32 70.62,-120.12 63.77,-121.85"/>
<polygon fill="black" stroke="black" points="62.92,-118.45 54.09,-124.3 64.64,-125.24 62.92,-118.45"/>
</g>
<!-- 10 -->
<g id="node15" class="node" pointer-events="visible" data-name="10">

<ellipse fill="none" stroke="black" cx="48.5" cy="-79.23" rx="27" ry="18"/>
<text text-anchor="middle" x="48.5" y="-75.03" font-family="Times,serif" font-size="14.00">10</text>
</g>
<!-- Part_III&#45;&gt;10 -->
<g id="edge14" class="edge" data-name="Part_III-&gt;10">

<path fill="none" stroke="black" d="M92.09,-97.65C88.82,-96.27 85.43,-94.84 82.05,-93.41"/>
<polygon fill="black" stroke="black" points="83.42,-90.19 72.85,-89.52 80.7,-96.64 83.42,-90.19"/>
</g>
<!-- 11 -->
<g id="node16" class="node" pointer-events="visible" data-name="11">

<ellipse fill="none" stroke="black" cx="88.23" cy="-39.5" rx="27" ry="18"/>
<text text-anchor="middle" x="88.23" y="-35.3" font-family="Times,serif" font-size="14.00">11</text>
</g>
<!-- Part_III&#45;&gt;11 -->
<g id="edge15" class="edge" data-name="Part_III-&gt;11">

<path fill="none" stroke="black" d="M110.43,-92.01C107.34,-84.72 103.62,-75.9 100.11,-67.6"/>
<polygon fill="black" stroke="black" points="103.39,-66.38 96.28,-58.53 96.95,-69.11 103.39,-66.38"/>
</g>
<!-- 12 -->
<g id="node17" class="node" pointer-events="visible" data-name="12">

<ellipse fill="none" stroke="black" cx="140.14" cy="-18" rx="27" ry="18"/>
<text text-anchor="middle" x="140.14" y="-13.8" font-family="Times,serif" font-size="14.00">12</text>
</g>
<!-- Part_III&#45;&gt;12 -->
<g id="edge16" class="edge" data-name="Part_III-&gt;12">

<path fill="none" stroke="black" d="M121.61,-91.33C124.75,-78.91 129.08,-61.76 132.77,-47.17"/>
<polygon fill="black" stroke="black" points="136.13,-48.17 135.18,-37.62 129.34,-46.46 136.13,-48.17"/>
</g>
<!-- 13 -->
<g id="node18" class="node" pointer-events="visible" data-name="13">

<ellipse fill="none" stroke="black" cx="196.33" cy="-18" rx="27" ry="18"/>
<text text-anchor="middle" x="196.33" y="-13.8" font-family="Times,serif" font-size="14.00">13</text>
</g>
<!-- Part_IV&#45;&gt;13 -->
<g id="edge17" class="edge" data-name="Part_IV-&gt;13">

<path fill="none" stroke="black" d="M214.85,-91.33C211.72,-78.91 207.38,-61.76 203.7,-47.17"/>
<polygon fill="black" stroke="black" points="207.13,-46.46 201.28,-37.62 200.34,-48.17 207.13,-46.46"/>
</g>
<!-- 14 -->
<g id="node19" class="node" pointer-events="visible" data-name="14">

<ellipse fill="none" stroke="black" cx="248.24" cy="-39.5" rx="27" ry="18"/>
<text text-anchor="middle" x="248.24" y="-35.3" font-family="Times,serif" font-size="14.00">14</text>
</g>
<!-- Part_IV&#45;&gt;14 -->
<g id="edge18" class="edge" data-name="Part_IV-&gt;14">

<path fill="none" stroke="black" d="M226.04,-92.01C229.12,-84.72 232.85,-75.9 236.36,-67.6"/>
<polygon fill="black" stroke="black" points="239.52,-69.11 240.19,-58.53 233.07,-66.38 239.52,-69.11"/>
</g>
<!-- 15 -->
<g id="node20" class="node" pointer-events="visible" data-name="15">

<ellipse fill="none" stroke="black" cx="287.96" cy="-79.23" rx="27" ry="18"/>
<text text-anchor="middle" x="287.96" y="-75.03" font-family="Times,serif" font-size="14.00">15</text>
</g>
<!-- Part_IV&#45;&gt;15 -->
<g id="edge19" class="edge" data-name="Part_IV-&gt;15">

<path fill="none" stroke="black" d="M244.38,-97.65C247.65,-96.27 251.04,-94.84 254.42,-93.41"/>
<polygon fill="black" stroke="black" points="255.77,-96.64 263.62,-89.52 253.05,-90.19 255.77,-96.64"/>
</g>
<!-- 16 -->
<g id="node21" class="node" pointer-events="visible" data-name="16">

<ellipse fill="none" stroke="black" cx="309.47" cy="-131.14" rx="27" ry="18"/>
<text text-anchor="middle" x="309.47" y="-126.94" font-family="Times,serif" font-size="14.00">16</text>
</g>
<!-- Part_IV&#45;&gt;16 -->
<g id="edge20" class="edge" data-name="Part_IV-&gt;16">

<path fill="none" stroke="black" d="M252.01,-116.62C258.73,-118.32 265.84,-120.12 272.69,-121.85"/>
<polygon fill="black" stroke="black" points="271.83,-125.24 282.38,-124.3 273.54,-118.45 271.83,-125.24"/>
</g>
<!-- 1&#45;&gt;2 -->
<g id="edge21" class="edge" data-name="1-&gt;2">

<path fill="none" stroke="black" d="M302.19,-204.9C301.35,-206.93 300.47,-209.04 299.59,-211.16"/>
<polygon fill="black" stroke="black" points="296.41,-209.7 295.82,-220.28 302.88,-212.38 296.41,-209.7"/>
</g>
<!-- 2&#45;&gt;3 -->
<g id="edge22" class="edge" data-name="2-&gt;3">

<path fill="none" stroke="black" d="M272.72,-254.48C272.24,-254.96 271.76,-255.44 271.27,-255.93"/>
<polygon fill="black" stroke="black" points="269.04,-253.21 264.45,-262.75 273.99,-258.16 269.04,-253.21"/>
</g>
<!-- 3&#45;&gt;4 -->
<g id="edge23" class="edge" data-name="3-&gt;4">

<path fill="none" stroke="black" d="M225.01,-288.58C224.9,-288.63 224.78,-288.68 224.67,-288.73"/>
<polygon fill="black" stroke="black" points="228.79,-283.23 220.89,-290.29 231.47,-289.7 228.79,-283.23"/>
</g>
<!-- 5&#45;&gt;6 -->
<g id="edge24" class="edge" data-name="5-&gt;6">

<path fill="none" stroke="black" d="M116.92,-290.85C116.8,-290.8 116.69,-290.75 116.57,-290.7"/>
<polygon fill="black" stroke="black" points="123.37,-289.73 112.79,-289.14 120.69,-296.2 123.37,-289.73"/>
</g>
<!-- 6&#45;&gt;7 -->
<g id="edge25" class="edge" data-name="6-&gt;7">

<path fill="none" stroke="black" d="M72.98,-263.72C72.51,-263.24 72.02,-262.76 71.54,-262.27"/>
<polygon fill="black" stroke="black" points="74.26,-260.04 64.71,-255.45 69.31,-264.99 74.26,-260.04"/>
</g>
<!-- 7&#45;&gt;8 -->
<g id="edge26" class="edge" data-name="7-&gt;8">

<path fill="none" stroke="black" d="M41.22,-221.66C40.38,-219.63 39.51,-217.53 38.63,-215.4"/>
<polygon fill="black" stroke="black" points="41.91,-214.18 34.85,-206.28 35.44,-216.86 41.91,-214.18"/>
</g>
<!-- 9&#45;&gt;10 -->
<g id="edge27" class="edge" data-name="9-&gt;10">

<path fill="none" stroke="black" d="M34.28,-113.57C35.12,-111.54 35.99,-109.43 36.87,-107.31"/>
<polygon fill="black" stroke="black" points="40.06,-108.76 40.65,-98.19 33.59,-106.08 40.06,-108.76"/>
</g>
<!-- 10&#45;&gt;11 -->
<g id="edge28" class="edge" data-name="10-&gt;11">

<path fill="none" stroke="black" d="M63.75,-63.98C64.23,-63.51 64.71,-63.02 65.19,-62.54"/>
<polygon fill="black" stroke="black" points="67.42,-65.26 72.02,-55.71 62.47,-60.31 67.42,-65.26"/>
</g>
<!-- 11&#45;&gt;12 -->
<g id="edge29" class="edge" data-name="11-&gt;12">

<path fill="none" stroke="black" d="M111.45,-29.88C111.57,-29.84 111.68,-29.79 111.8,-29.74"/>
<polygon fill="black" stroke="black" points="107.68,-35.23 115.58,-28.17 105,-28.77 107.68,-35.23"/>
</g>
<!-- 13&#45;&gt;14 -->
<g id="edge30" class="edge" data-name="13-&gt;14">

<path fill="none" stroke="black" d="M219.55,-27.62C219.66,-27.67 219.78,-27.71 219.89,-27.76"/>
<polygon fill="black" stroke="black" points="213.1,-28.73 223.67,-29.33 215.77,-22.27 213.1,-28.73"/>
</g>
<!-- 14&#45;&gt;15 --><g id="edge31" class="edge" data-name="14-&gt;15">

<path fill="none" stroke="black" d="M263.48,-54.75C263.96,-55.23 264.44,-55.71 264.93,-56.19"/>
<polygon fill="black" stroke="black" points="262.21,-58.42 271.75,-63.02 267.16,-53.47 262.21,-58.42"/>
</g><!-- 15&#45;&gt;16 --><g id="edge32" class="edge" data-name="15-&gt;16">

<path fill="none" stroke="black" d="M295.24,-96.81C296.08,-98.83 296.96,-100.94 297.84,-103.07"/>
<polygon fill="black" stroke="black" points="294.55,-104.29 301.62,-112.19 301.02,-101.61 294.55,-104.29"/>
</g></g>
</svg>