<?xml version="1.0" standalone="no"?>
<svg xmlns="http://www.w3.org/2000/svg" xmlns:xlink="http://www.w3.org/1999/xlink" width="797pt" height="787pt" viewBox="0.00 0.00 796.56 787.13">
<g id="graph0" class="graph" transform="translate(48.2705073281395,756.2166152623677) scale(0.9012504626108304)" data-name="G">

<polygon fill="white" stroke="none" points="-4,4 -4,-783.13 792.56,-783.13 792.56,4 -4,4"/>




<!-- App -->
<g id="node1" class="node" pointer-events="visible" data-name="App">

<ellipse fill="none" stroke="lightskyblue" cx="401.51" cy="-391.78" rx="27.84" ry="27.84"/>
<polyline fill="none" stroke="lightskyblue" points="419.81,-412.53 383.21,-412.53"/>
<polyline fill="none" stroke="lightskyblue" points="419.81,-371.03 383.21,-371.03"/>
<text text-anchor="middle" x="401.51" y="-387.58" font-family="Times,serif" font-size="14.00">App</text>
</g>
<!-- Part_I -->
<g id="node2" class="node" pointer-events="visible" data-name="Part_I">

<polygon fill="none" stroke="lightgreen" points="516.88,-409.78 467.91,-391.78 516.88,-373.78 565.84,-391.78 516.88,-409.78"/>
<polyline fill="none" stroke="lightgreen" points="479.17,-395.92 479.17,-387.64"/>
<polyline fill="none" stroke="lightgreen" points="505.61,-377.92 528.14,-377.92"/>
<polyline fill="none" stroke="lightgreen" points="554.58,-387.64 554.58,-395.92"/>
<polyline fill="none" stroke="lightgreen" points="528.14,-405.64 505.61,-405.64"/>
<text text-anchor="middle" x="516.88" y="-387.58" font-family="Times,serif" font-size="14.00">Part_I</text>
</g>
<!-- App&#45;&gt;Part_I -->
<g id="edge1" class="edge" data-name="App-&gt;Part_I">

<path fill="none" stroke="black" d="M429.73,-391.78C437.61,-391.78 446.5,-391.78 455.5,-391.78"/>
<polygon fill="black" stroke="black" points="455.39,-395.28 465.39,-391.78 455.39,-388.28 455.39,-395.28"/>
</g>
<!-- Part_II -->
<g id="node3" class="node" pointer-events="visible" data-name="Part_II">

<polygon fill="none" stroke="lightgreen" points="406.46,-517.79 352.9,-499.79 406.46,-481.79 460.02,-499.79 406.46,-517.79"/>
<polyline fill="none" stroke="lightgreen" points="364.27,-503.62 364.27,-495.97"/>
<polyline fill="none" stroke="lightgreen" points="395.08,-485.62 417.83,-485.62"/>
<polyline fill="none" stroke="lightgreen" points="448.65,-495.97 448.65,-503.62"/>
<polyline fill="none" stroke="lightgreen" points="417.83,-513.97 395.08,-513.97"/>
<text text-anchor="middle" x="406.46" y="-495.59" font-family="Times,serif" font-size="14.00">Part_II</text>
</g>
<!-- App&#45;&gt;Part_II -->
<g id="edge2" class="edge" data-name="App-&gt;Part_II">

<path fill="none" stroke="black" d="M402.8,-419.88C403.51,-435.42 404.4,-454.71 405.12,-470.45"/>
<polygon fill="black" stroke="black" points="401.61,-470.32 405.56,-480.15 408.6,-470 401.61,-470.32"/>
</g>
<!-- Part_III -->
<g id="node4" class="node" pointer-events="visible" data-name="Part_III">

<polygon fill="none" stroke="lightgreen" points="300.68,-413.19 242.52,-395.19 300.68,-377.19 358.84,-395.19 300.68,-413.19"/>
<polyline fill="none" stroke="lightgreen" points="253.99,-398.73 253.99,-391.64"/>
<polyline fill="none" stroke="lightgreen" points="289.22,-380.73 312.15,-380.73"/>
<polyline fill="none" stroke="lightgreen" points="347.38,-391.64 347.38,-398.73"/>
<polyline fill="none" stroke="lightgreen" points="312.15,-409.64 289.22,-409.64"/>
<text text-anchor="middle" x="300.68" y="-390.99" font-family="Times,serif" font-size="14.00">Part_III</text>
</g>
<!-- App&#45;&gt;Part_III -->
<g id="edge3" class="edge" data-name="App-&gt;Part_III">

<path fill="none" stroke="black" d="M373.43,-392.73C371.01,-392.81 368.51,-392.9 365.96,-392.98"/>
<polygon fill="black" stroke="black" points="365.87,-389.48 355.99,-393.32 366.11,-396.48 365.87,-389.48"/>
</g>
<!-- Part_IV -->
<g id="node5" class="node" pointer-events="visible" data-name="Part_IV">

<polygon fill="none" stroke="lightgreen" points="402.71,-310.12 344.02,-292.12 402.71,-274.12 461.4,-292.12 402.71,-310.12"/>
<polyline fill="none" stroke="lightgreen" points="355.49,-295.64 355.49,-288.6"/>
<polyline fill="none" stroke="lightgreen" points="391.24,-277.64 414.18,-277.64"/>
<polyline fill="none" stroke="lightgreen" points="449.93,-288.6 449.93,-295.64"/>
<polyline fill="none" stroke="lightgreen" points="414.18,-306.6 391.24,-306.6"/>
<text text-anchor="middle" x="402.71" y="-287.92" font-family="Times,serif" font-size="14.00">Part_IV</text>
</g>
<!-- App&#45;&gt;Part_IV -->
<g id="edge4" class="edge" data-name="App-&gt;Part_IV">

<path fill="none" stroke="black" d="M401.85,-363.49C402.01,-350.45 402.2,-334.97 402.35,-321.77"/>
<polygon fill="black" stroke="black" points="405.85,-321.97 402.47,-311.93 398.85,-321.89 405.85,-321.97"/>
</g>
<!-- 1 -->
<g id="node6" class="node" pointer-events="visible" data-name="1">

<ellipse fill="none" stroke="black" cx="761.56" cy="-312.28" rx="27" ry="18"/>
<text text-anchor="middle" x="761.56" y="-308.08" font-family="Times,serif" font-size="14.00">1</text>
</g>
<!-- Part_I&#45;&gt;1 -->
<g id="edge5" class="edge" data-name="Part_I-&gt;1">

<path fill="none" stroke="black" d="M543.53,-383.12C587.88,-368.71 676.85,-339.8 726.33,-323.73"/>
<polygon fill="black" stroke="black" points="727.26,-327.1 735.69,-320.68 725.1,-320.45 727.26,-327.1"/>
</g>
<!-- 2 -->
<g id="node7" class="node" pointer-events="visible" data-name="2">

<ellipse fill="none" stroke="black" cx="610.34" cy="-263.15" rx="27" ry="18"/>
<text text-anchor="middle" x="610.34" y="-258.95" font-family="Times,serif" font-size="14.00">2</text>
</g>
<!-- Part_I&#45;&gt;2 -->
<g id="edge6" class="edge" data-name="Part_I-&gt;2">

<path fill="none" stroke="black" d="M527.24,-377.52C542.81,-356.08 572.5,-315.22 591.85,-288.59"/>
<polygon fill="black" stroke="black" points="594.53,-290.86 597.58,-280.71 588.87,-286.74 594.53,-290.86"/>
</g>
<!-- 3 -->
<g id="node8" class="node" pointer-events="visible" data-name="3">

<ellipse fill="none" stroke="black" cx="610.34" cy="-520.42" rx="27" ry="18"/>
<text text-anchor="middle" x="610.34" y="-516.22" font-family="Times,serif" font-size="14.00">3</text>
</g>
<!-- Part_I&#45;&gt;3 -->
<g id="edge7" class="edge" data-name="Part_I-&gt;3">

<path fill="none" stroke="black" d="M527.24,-406.04C542.81,-427.48 572.5,-468.34 591.85,-494.97"/>
<polygon fill="black" stroke="black" points="588.87,-496.82 597.58,-502.85 594.53,-492.7 588.87,-496.82"/>
</g>
<!-- 4 -->
<g id="node9" class="node" pointer-events="visible" data-name="4">

<ellipse fill="none" stroke="black" cx="761.56" cy="-471.28" rx="27" ry="18"/>
<text text-anchor="middle" x="761.56" y="-467.08" font-family="Times,serif" font-size="14.00">4</text>
</g>
<!-- Part_I&#45;&gt;4 -->
<g id="edge8" class="edge" data-name="Part_I-&gt;4">

<path fill="none" stroke="black" d="M543.53,-400.44C587.88,-414.85 676.85,-443.76 726.33,-459.84"/>
<polygon fill="black" stroke="black" points="725.1,-463.12 735.69,-462.88 727.26,-456.46 725.1,-463.12"/>
</g>
<!-- 5 -->
<g id="node10" class="node" pointer-events="visible" data-name="5">

<ellipse fill="none" stroke="black" cx="501.92" cy="-753.47" rx="27" ry="18"/>
<text text-anchor="middle" x="501.92" y="-749.27" font-family="Times,serif" font-size="14.00">5</text>
</g>
<!-- Part_II&#45;&gt;5 -->
<g id="edge9" class="edge" data-name="Part_II-&gt;5">

<path fill="none" stroke="black" d="M412.58,-516.05C428.45,-558.23 471.11,-671.59 491.19,-724.95"/>
<polygon fill="black" stroke="black" points="487.89,-726.13 494.69,-734.26 494.44,-723.67 487.89,-726.13"/>
</g>
<!-- 6 -->
<g id="node11" class="node" pointer-events="visible" data-name="6">

<ellipse fill="none" stroke="black" cx="546.34" cy="-591.95" rx="27" ry="18"/>
<text text-anchor="middle" x="546.34" y="-587.75" font-family="Times,serif" font-size="14.00">6</text>
</g>
<!-- Part_II&#45;&gt;6 -->
<g id="edge10" class="edge" data-name="Part_II-&gt;6">

<path fill="none" stroke="black" d="M425.03,-512.03C448.6,-527.56 489.5,-554.5 517.22,-572.77"/>
<polygon fill="black" stroke="black" points="515.25,-575.66 525.52,-578.24 519.1,-569.81 515.25,-575.66"/>
</g>
<!-- 7 -->
<g id="node12" class="node" pointer-events="visible" data-name="7">

<ellipse fill="none" stroke="black" cx="275.59" cy="-604.35" rx="27" ry="18"/>
<text text-anchor="middle" x="275.59" y="-600.15" font-family="Times,serif" font-size="14.00">7</text>
</g>
<!-- Part_II&#45;&gt;7 -->
<g id="edge11" class="edge" data-name="Part_II-&gt;7">

<path fill="none" stroke="black" d="M390.15,-512.82C367.96,-530.55 328.01,-562.47 301.64,-583.53"/>
<polygon fill="black" stroke="black" points="299.75,-580.57 294.12,-589.54 304.12,-586.04 299.75,-580.57"/>
</g>
<!-- 8 -->
<g id="node13" class="node" pointer-events="visible" data-name="8">

<ellipse fill="none" stroke="black" cx="334.58" cy="-761.13" rx="27" ry="18"/>
<text text-anchor="middle" x="334.58" y="-756.93" font-family="Times,serif" font-size="14.00">8</text>
</g>
<!-- Part_II&#45;&gt;8 -->
<g id="edge12" class="edge" data-name="Part_II-&gt;8">

<path fill="none" stroke="black" d="M401.85,-516.54C389.87,-560.1 357.63,-677.34 342.55,-732.15"/>
<polygon fill="black" stroke="black" points="339.2,-731.12 339.93,-741.69 345.95,-732.98 339.2,-731.12"/>
</g>
<!-- 9 -->
<g id="node14" class="node" pointer-events="visible" data-name="9">

<ellipse fill="none" stroke="black" cx="32.94" cy="-492.29" rx="27" ry="18"/>
<text text-anchor="middle" x="32.94" y="-488.09" font-family="Times,serif" font-size="14.00">9</text>
</g>
<!-- Part_III&#45;&gt;9 -->
<g id="edge13" class="edge" data-name="Part_III-&gt;9">

<path fill="none" stroke="black" d="M273.54,-405.03C224.63,-422.77 121.82,-460.05 67.79,-479.65"/>
<polygon fill="black" stroke="black" points="66.67,-476.33 58.46,-483.03 69.06,-482.91 66.67,-476.33"/>
</g>
<!-- 10 -->
<g id="node15" class="node" pointer-events="visible" data-name="10">

<ellipse fill="none" stroke="black" cx="202.09" cy="-541" rx="27" ry="18"/>
<text text-anchor="middle" x="202.09" y="-536.8" font-family="Times,serif" font-size="14.00">10</text>
</g>
<!-- Part_III&#45;&gt;10 -->
<g id="edge14" class="edge" data-name="Part_III-&gt;10">

<path fill="none" stroke="black" d="M290.5,-410.24C273.72,-435.06 240.06,-484.84 219.46,-515.31"/>
<polygon fill="black" stroke="black" points="216.81,-512.97 214.11,-523.22 222.61,-516.89 216.81,-512.97"/>
</g>
<!-- 11 -->
<g id="node16" class="node" pointer-events="visible" data-name="11">

<ellipse fill="none" stroke="black" cx="192.47" cy="-256.35" rx="27" ry="18"/>
<text text-anchor="middle" x="192.47" y="-252.15" font-family="Times,serif" font-size="14.00">11</text>
</g>
<!-- Part_III&#45;&gt;11 -->
<g id="edge15" class="edge" data-name="Part_III-&gt;11">

<path fill="none" stroke="black" d="M289.1,-380.33C270.68,-356.7 234.51,-310.28 212.02,-281.43"/>
<polygon fill="black" stroke="black" points="214.81,-279.31 205.9,-273.58 209.28,-283.61 214.81,-279.31"/>
</g>
<!-- 12 -->
<g id="node17" class="node" pointer-events="visible" data-name="12">

<ellipse fill="none" stroke="black" cx="27" cy="-316.37" rx="27" ry="18"/>
<text text-anchor="middle" x="27" y="-312.17" font-family="Times,serif" font-size="14.00">12</text>
</g>
<!-- Part_III&#45;&gt;12 -->
<g id="edge16" class="edge" data-name="Part_III-&gt;12">

<path fill="none" stroke="black" d="M269.82,-386.3C218.79,-371.6 117.1,-342.31 62.92,-326.71"/>
<polygon fill="black" stroke="black" points="64.15,-323.42 53.57,-324.02 62.21,-330.15 64.15,-323.42"/>
</g>
<!-- 13 -->
<g id="node18" class="node" pointer-events="visible" data-name="13">

<ellipse fill="none" stroke="black" cx="317.27" cy="-18" rx="27" ry="18"/>
<text text-anchor="middle" x="317.27" y="-13.8" font-family="Times,serif" font-size="14.00">13</text>
</g>
<!-- Part_IV&#45;&gt;13 -->
<g id="edge17" class="edge" data-name="Part_IV-&gt;13">

<path fill="none" stroke="black" d="M397.49,-275.39C383.33,-229.93 344,-103.76 326.21,-46.69"/>
<polygon fill="black" stroke="black" points="329.62,-45.88 323.31,-37.37 322.94,-47.96 329.62,-45.88"/>
</g>
<!-- 14 -->
<g id="node19" class="node" pointer-events="visible" data-name="14">

<ellipse fill="none" stroke="black" cx="260.41" cy="-186.1" rx="27" ry="18"/>
<text text-anchor="middle" x="260.41" y="-181.9" font-family="Times,serif" font-size="14.00">14</text>
</g>
<!-- Part_IV&#45;&gt;14 -->
<g id="edge18" class="edge" data-name="Part_IV-&gt;14">

<path fill="none" stroke="black" d="M385.26,-279.12C360.86,-260.94 316.3,-227.74 287.54,-206.32"/>
<polygon fill="black" stroke="black" points="289.77,-203.61 279.66,-200.44 285.59,-209.23 289.77,-203.61"/>
</g>
<!-- 15 -->
<g id="node20" class="node" pointer-events="visible" data-name="15">

<ellipse fill="none" stroke="black" cx="547.52" cy="-189.55" rx="27" ry="18"/>
<text text-anchor="middle" x="547.52" y="-185.35" font-family="Times,serif" font-size="14.00">15</text>
</g>
<!-- Part_IV&#45;&gt;15 -->
<g id="edge19" class="edge" data-name="Part_IV-&gt;15">

<path fill="none" stroke="black" d="M420.76,-279.34C445.55,-261.77 490.39,-230.01 519.55,-209.36"/>
<polygon fill="black" stroke="black" points="521.41,-212.33 527.55,-203.69 517.36,-206.62 521.41,-212.33"/>
</g>
<!-- 16 -->
<g id="node21" class="node" pointer-events="visible" data-name="16">

<ellipse fill="none" stroke="black" cx="494.71" cy="-20.13" rx="27" ry="18"/>
<text text-anchor="middle" x="494.71" y="-15.93" font-family="Times,serif" font-size="14.00">16</text>
</g>
<!-- Part_IV&#45;&gt;16 -->
<g id="edge20" class="edge" data-name="Part_IV-&gt;16">

<path fill="none" stroke="black" d="M408.33,-275.52C423.58,-230.41 465.93,-105.22 485.08,-48.6"/>
<polygon fill="black" stroke="black" points="488.32,-49.95 488.21,-39.35 481.69,-47.7 488.32,-49.95"/>
</g>
<!-- 1&#45;&gt;2 -->
<g id="edge21" class="edge" data-name="1-&gt;2">

<path fill="none" stroke="black" d="M736.92,-304.28C712.21,-296.25 673.89,-283.8 645.89,-274.7"/>
<polygon fill="black" stroke="black" points="646.99,-271.38 636.4,-271.61 644.83,-278.03 646.99,-271.38"/>
</g>
<!-- 2&#45;&gt;3 -->
<g id="edge22" class="edge" data-name="2-&gt;3">

<path fill="none" stroke="black" d="M610.34,-281.24C610.34,-324.95 610.34,-436.7 610.34,-490.53"/>
<polygon fill="black" stroke="black" points="606.84,-490.49 610.34,-500.49 613.84,-490.49 606.84,-490.49"/>
</g>
<!-- 3&#45;&gt;4 -->
<g id="edge23" class="edge" data-name="3-&gt;4">

<path fill="none" stroke="black" d="M634.97,-512.41C659.69,-504.38 698,-491.93 726.01,-482.83"/>
<polygon fill="black" stroke="black" points="727.07,-486.17 735.5,-479.75 724.9,-479.51 727.07,-486.17"/>
</g>
<!-- 5&#45;&gt;6 -->
<g id="edge24" class="edge" data-name="5-&gt;6">

<path fill="none" stroke="black" d="M506.84,-735.56C514.48,-707.79 529.26,-654.07 538.41,-620.78"/>
<polygon fill="black" stroke="black" points="541.72,-621.96 540.99,-611.39 534.97,-620.11 541.72,-621.96"/>
</g>
<!-- 6&#45;&gt;7 -->
<g id="edge25" class="edge" data-name="6-&gt;7">

<path fill="none" stroke="black" d="M519.14,-593.2C470.79,-595.41 369.76,-600.04 314.22,-602.58"/>
<polygon fill="black" stroke="black" points="314.11,-599.08 304.28,-603.04 314.43,-606.08 314.11,-599.08"/>
</g>
<!-- 7&#45;&gt;8 -->
<g id="edge26" class="edge" data-name="7-&gt;8">

<path fill="none" stroke="black" d="M282.24,-622.03C292.37,-648.97 311.78,-700.54 323.91,-732.76"/>
<polygon fill="black" stroke="black" points="320.53,-733.73 327.33,-741.86 327.08,-731.26 320.53,-733.73"/>
</g>
<!-- 9&#45;&gt;10 -->
<g id="edge27" class="edge" data-name="9-&gt;10">

<path fill="none" stroke="black" d="M57.9,-499.47C86.5,-507.71 133.63,-521.28 166.17,-530.66"/>
<polygon fill="black" stroke="black" points="164.99,-533.96 175.57,-533.36 166.93,-527.23 164.99,-533.96"/>
</g>
<!-- 10&#45;&gt;11 -->
<g id="edge28" class="edge" data-name="10-&gt;11">

<path fill="none" stroke="black" d="M201.47,-522.76C199.85,-474.88 195.48,-345.22 193.48,-286.26"/>
<polygon fill="black" stroke="black" points="196.98,-286.2 193.15,-276.32 189.99,-286.43 196.98,-286.2"/>
</g>
<!-- 11&#45;&gt;12 -->
<g id="edge29" class="edge" data-name="11-&gt;12">

<path fill="none" stroke="black" d="M168.41,-265.08C140.35,-275.26 93.73,-292.17 61.74,-303.77"/>
<polygon fill="black" stroke="black" points="60.72,-300.41 52.51,-307.11 63.11,-306.99 60.72,-300.41"/>
</g>
<!-- 13&#45;&gt;14 -->
<g id="edge30" class="edge" data-name="13-&gt;14">

<path fill="none" stroke="black" d="M311.18,-35.99C301.35,-65.06 281.89,-122.6 270.12,-157.39"/>
<polygon fill="black" stroke="black" points="266.82,-156.21 266.93,-166.81 273.45,-158.45 266.82,-156.21"/>
</g>
<!-- 14&#45;&gt;15 --><g id="edge31" class="edge" data-name="14-&gt;15">

<path fill="none" stroke="black" d="M287.68,-186.43C339.01,-187.04 450.12,-188.38 509.03,-189.08"/>
<polygon fill="black" stroke="black" points="508.87,-192.58 518.92,-189.2 508.96,-185.58 508.87,-192.58"/>
</g><!-- 15&#45;&gt;16 --><g id="edge32" class="edge" data-name="15-&gt;16">

<path fill="none" stroke="black" d="M541.96,-171.74C532.88,-142.58 514.74,-84.39 503.77,-49.19"/>
<polygon fill="black" stroke="black" points="507.11,-48.16 500.8,-39.66 500.43,-50.25 507.11,-48.16"/>
</g></g>
</svg>