<?xml version="1.0" standalone="no"?>
<svg xmlns="http://www.w3.org/2000/svg" xmlns:xlink="http://www.w3.org/1999/xlink" width="593pt" height="704pt" viewBox="0.00 0.00 593.03 704">
<g id="graph0" class="graph" transform="translate(4,700) scale(1)" data-name="G">

<polygon fill="white" stroke="none" points="-4,4 -4,-700 589.03,-700 589.03,4 -4,4"/>
<g id="clust1" class="cluster" data-name="cluster_0">

<defs style="">
<linearGradient id="clust1_l_20" gradientUnits="userSpaceOnUse" x1="237.03" y1="-649.5" x2="577.03" y2="-649.5" style="">
<stop offset="0" style="stop-color:darkgray;stop-opacity:1.;"/>
<stop offset="1" style="stop-color:gold;stop-opacity:1.;"/>
</linearGradient>
</defs>
<polygon fill="url(#l_20)" stroke="lightgrey" points="237.03,-611 237.03,-688 577.03,-688 577.03,-611 237.03,-611" style=""/>
<text text-anchor="middle" x="407.03" y="-671.4" font-family="Times,serif" font-size="14.00" style="">Process #1</text>
</g>
<g id="clust3" class="cluster" data-name="cluster_2">

<defs style="">
<linearGradient id="clust3_l_21" gradientUnits="userSpaceOnUse" x1="237.03" y1="-267.5" x2="577.03" y2="-267.5" style="">
<stop offset="0" style="stop-color:darkgray;stop-opacity:1.;"/>
<stop offset="1" style="stop-color:gold;stop-opacity:1.;"/>
</linearGradient>
</defs>
<polygon fill="url(#l_21)" stroke="lightgrey" points="237.03,-229 237.03,-306 577.03,-306 577.03,-229 237.03,-229" style=""/>
<text text-anchor="middle" x="407.03" y="-289.4" font-family="Times,serif" font-size="14.00" style="">Process #3</text>
</g>
<g id="clust2" class="cluster" data-name="cluster_1">

<defs style="">
<linearGradient id="clust2_l_22" gradientUnits="userSpaceOnUse" x1="237.03" y1="-458.5" x2="577.03" y2="-458.5" style="">
<stop offset="0" style="stop-color:darkgray;stop-opacity:1.;"/>
<stop offset="1" style="stop-color:gold;stop-opacity:1.;"/>
</linearGradient>
</defs>
<polygon fill="url(#l_22)" stroke="lightgrey" points="237.03,-420 237.03,-497 577.03,-497 577.03,-420 237.03,-420" style=""/>
<text text-anchor="middle" x="407.03" y="-480.4" font-family="Times,serif" font-size="14.00" style="">Process #2</text>
</g>
<g id="clust4" class="cluster" data-name="cluster_3">

<defs style="">
<linearGradient id="clust4_l_23" gradientUnits="userSpaceOnUse" x1="237.03" y1="-76.5" x2="577.03" y2="-76.5" style="">
<stop offset="0" style="stop-color:darkgray;stop-opacity:1.;"/>
<stop offset="1" style="stop-color:gold;stop-opacity:1.;"/>
</linearGradient>
</defs>
<polygon fill="url(#l_23)" stroke="lightgrey" points="237.03,-38 237.03,-115 577.03,-115 577.03,-38 237.03,-38" style=""/>
<text text-anchor="middle" x="407.03" y="-98.4" font-family="Times,serif" font-size="14.00" style="">Process #4</text>
</g>
<!-- App -->
<g id="node1" class="node" pointer-events="visible" data-name="App">

<ellipse fill="none" stroke="lightskyblue" cx="27.67" cy="-285" rx="27.84" ry="27.84"/>
<polyline fill="none" stroke="lightskyblue" points="45.97,-305.75 9.37,-305.75"/>
<polyline fill="none" stroke="lightskyblue" points="45.97,-264.25 9.37,-264.25"/>
<text text-anchor="middle" x="27.67" y="-280.8" font-family="Times,serif" font-size="14.00">App</text>
</g>
<!-- Module1 -->
<g id="node2" class="node" pointer-events="visible" data-name="Part_I" data-comment="Module1">

<polygon fill="none" stroke="lightgreen" points="150.18,-571 101.21,-553 150.18,-535 199.15,-553 150.18,-571"/>
<polyline fill="none" stroke="lightgreen" points="112.48,-557.14 112.48,-548.86"/>
<polyline fill="none" stroke="lightgreen" points="138.92,-539.14 161.44,-539.14"/>
<polyline fill="none" stroke="lightgreen" points="187.88,-548.86 187.88,-557.14"/>
<polyline fill="none" stroke="lightgreen" points="161.44,-566.86 138.92,-566.86"/>
<text text-anchor="middle" x="150.18" y="-548.8" font-family="Times,serif" font-size="14.00">Part_I</text>
</g>
<!-- App&#45;&gt;Module1 -->
<g id="edge1" class="edge" data-name="App-&gt;Part_I" data-comment="App-&gt;Module1">

<path fill="none" stroke="black" d="M40.01,-310.21C62.93,-361.2 114.58,-476.06 137.66,-527.38"/>
<polygon fill="black" stroke="black" points="134.34,-528.54 141.64,-536.22 140.73,-525.66 134.34,-528.54"/>
</g>
<!-- Module2 -->
<g id="node3" class="node" pointer-events="visible" data-name="Part_II" data-comment="Module2">

<polygon fill="none" stroke="lightgreen" points="150.18,-380 96.62,-362 150.18,-344 203.74,-362 150.18,-380"/>
<polyline fill="none" stroke="lightgreen" points="107.99,-365.82 107.99,-358.18"/>
<polyline fill="none" stroke="lightgreen" points="138.81,-347.82 161.56,-347.82"/>
<polyline fill="none" stroke="lightgreen" points="192.37,-358.18 192.37,-365.82"/>
<polyline fill="none" stroke="lightgreen" points="161.56,-376.18 138.81,-376.18"/>
<text text-anchor="middle" x="150.18" y="-357.8" font-family="Times,serif" font-size="14.00">Part_II</text>
</g>
<!-- App&#45;&gt;Module2 -->
<g id="edge2" class="edge" data-name="App-&gt;Part_II" data-comment="App-&gt;Module2">

<path fill="none" stroke="black" d="M51.62,-299.66C71.34,-312.26 99.85,-330.48 120.96,-343.97"/>
<polygon fill="black" stroke="black" points="119.07,-346.91 129.38,-349.35 122.84,-341.02 119.07,-346.91"/>
</g>
<!-- Module3 -->
<g id="node4" class="node" pointer-events="visible" data-name="Part_III" data-comment="Module3">

<polygon fill="none" stroke="lightgreen" points="150.18,-227 92.02,-209 150.18,-191 208.34,-209 150.18,-227"/>
<polyline fill="none" stroke="lightgreen" points="103.49,-212.55 103.49,-205.45"/>
<polyline fill="none" stroke="lightgreen" points="138.72,-194.55 161.64,-194.55"/>
<polyline fill="none" stroke="lightgreen" points="196.88,-205.45 196.88,-212.55"/>
<polyline fill="none" stroke="lightgreen" points="161.64,-223.45 138.72,-223.45"/>
<text text-anchor="middle" x="150.18" y="-204.8" font-family="Times,serif" font-size="14.00">Part_III</text>
</g>
<!-- App&#45;&gt;Module3 -->
<g id="edge3" class="edge" data-name="App-&gt;Part_III" data-comment="App-&gt;Module3">

<path fill="none" stroke="black" d="M51.9,-270.35C71.42,-258.04 99.39,-240.4 120.34,-227.19"/>
<polygon fill="black" stroke="black" points="122.11,-230.21 128.71,-221.91 118.38,-224.29 122.11,-230.21"/>
</g>
<!-- Module4 -->
<g id="node5" class="node" pointer-events="visible" data-name="Part_IV" data-comment="Module4">

<polygon fill="none" stroke="lightgreen" points="150.18,-36 91.49,-18 150.18,0 208.87,-18 150.18,-36"/>
<polyline fill="none" stroke="lightgreen" points="102.96,-21.52 102.96,-14.48"/>
<polyline fill="none" stroke="lightgreen" points="138.71,-3.52 161.65,-3.52"/>
<polyline fill="none" stroke="lightgreen" points="197.4,-14.48 197.4,-21.52"/>
<polyline fill="none" stroke="lightgreen" points="161.65,-32.48 138.71,-32.48"/>
<text text-anchor="middle" x="150.18" y="-13.8" font-family="Times,serif" font-size="14.00">Part_IV</text>
</g>
<!-- App&#45;&gt;Module4 -->
<g id="edge4" class="edge" data-name="App-&gt;Part_IV" data-comment="App-&gt;Module4">

<path fill="none" stroke="black" d="M40.01,-259.88C62.82,-209.33 114.09,-95.75 137.33,-44.26"/>
<polygon fill="black" stroke="black" points="140.42,-45.91 141.35,-35.36 134.04,-43.03 140.42,-45.91"/>
</g>
<!-- 1 -->
<g id="node6" class="node" pointer-events="visible" data-name="1">

<ellipse fill="none" stroke="black" cx="272.03" cy="-637" rx="27" ry="18"/>
<text text-anchor="middle" x="272.03" y="-632.8" font-family="Times,serif" font-size="14.00">1</text>
</g>
<!-- Module1&#45;&gt;1 -->
<g id="edge5" class="edge" data-name="Part_I-&gt;1" data-comment="Module1-&gt;1">

<path fill="none" stroke="black" d="M168.1,-564.86C187.63,-578.55 220.05,-601.27 243.29,-617.56"/>
<polygon fill="black" stroke="black" points="241.19,-620.36 251.38,-623.23 245.2,-614.63 241.19,-620.36"/>
</g>
<!-- 2 -->
<g id="node7" class="node" pointer-events="visible" data-name="2">

<ellipse fill="none" stroke="black" cx="362.03" cy="-637" rx="27" ry="18"/>
<text text-anchor="middle" x="362.03" y="-632.8" font-family="Times,serif" font-size="14.00">2</text>
</g>
<!-- Module1&#45;&gt;2 -->
<g id="edge6" class="edge" data-name="Part_I-&gt;2" data-comment="Module1-&gt;2">

<path fill="none" stroke="black" d="M175.64,-562.06C205.06,-573.05 255.89,-592.3 299.03,-610 308.73,-613.98 319.22,-618.47 328.76,-622.64"/>
<polygon fill="black" stroke="black" points="327.08,-625.72 337.64,-626.54 329.9,-619.31 327.08,-625.72"/>
</g>
<!-- 3 -->
<g id="node8" class="node" pointer-events="visible" data-name="3">

<ellipse fill="none" stroke="black" cx="452.03" cy="-637" rx="27" ry="18"/>
<text text-anchor="middle" x="452.03" y="-632.8" font-family="Times,serif" font-size="14.00">3</text>
</g>
<!-- Module1&#45;&gt;3 -->
<g id="edge7" class="edge" data-name="Part_I-&gt;3" data-comment="Module1-&gt;3">

<path fill="none" stroke="black" d="M185.8,-558.3C215.94,-563.22 260.67,-571.23 299.03,-581 339.75,-591.37 349.71,-595.15 389.03,-610 398.84,-613.71 409.36,-618.12 418.89,-622.29"/>
<polygon fill="black" stroke="black" points="417.21,-625.37 427.77,-626.23 420.05,-618.97 417.21,-625.37"/>
</g>
<!-- 4 -->
<g id="node9" class="node" pointer-events="visible" data-name="4">

<ellipse fill="none" stroke="black" cx="542.03" cy="-637" rx="27" ry="18"/>
<text text-anchor="middle" x="542.03" y="-632.8" font-family="Times,serif" font-size="14.00">4</text>
</g>
<!-- Module1&#45;&gt;4 -->
<g id="edge8" class="edge" data-name="Part_I-&gt;4" data-comment="Module1-&gt;4">

<path fill="none" stroke="black" d="M198.05,-553.92C227.25,-555.05 265.51,-557.54 299.03,-563 380.63,-576.29 400.89,-582.97 479.03,-610 489.02,-613.46 499.66,-617.83 509.25,-622.04"/>
<polygon fill="black" stroke="black" points="507.61,-625.13 518.17,-626.04 510.48,-618.75 507.61,-625.13"/>
</g>
<!-- 5 -->
<g id="node10" class="node" pointer-events="visible" data-name="5">

<ellipse fill="none" stroke="black" cx="272.03" cy="-446" rx="27" ry="18"/>
<text text-anchor="middle" x="272.03" y="-441.8" font-family="Times,serif" font-size="14.00">5</text>
</g>
<!-- Module2&#45;&gt;5 -->
<g id="edge9" class="edge" data-name="Part_II-&gt;5" data-comment="Module2-&gt;5">

<path fill="none" stroke="black" d="M168.61,-374.21C188.26,-387.99 220.48,-410.57 243.54,-426.73"/>
<polygon fill="black" stroke="black" points="241.36,-429.48 251.55,-432.35 245.37,-423.75 241.36,-429.48"/>
</g>
<!-- 6 -->
<g id="node11" class="node" pointer-events="visible" data-name="6">

<ellipse fill="none" stroke="black" cx="362.03" cy="-446" rx="27" ry="18"/>
<text text-anchor="middle" x="362.03" y="-441.8" font-family="Times,serif" font-size="14.00">6</text>
</g>
<!-- Module2&#45;&gt;6 -->
<g id="edge10" class="edge" data-name="Part_II-&gt;6" data-comment="Module2-&gt;6">

<path fill="none" stroke="black" d="M176.69,-371.46C206.26,-382.51 256.4,-401.51 299.03,-419 308.73,-422.98 319.22,-427.47 328.76,-431.64"/>
<polygon fill="black" stroke="black" points="327.08,-434.72 337.64,-435.54 329.9,-428.31 327.08,-434.72"/>
</g>
<!-- 7 -->
<g id="node12" class="node" pointer-events="visible" data-name="7">

<ellipse fill="none" stroke="black" cx="452.03" cy="-446" rx="27" ry="18"/>
<text text-anchor="middle" x="452.03" y="-441.8" font-family="Times,serif" font-size="14.00">7</text>
</g>
<!-- Module2&#45;&gt;7 -->
<g id="edge11" class="edge" data-name="Part_II-&gt;7" data-comment="Module2-&gt;7">

<path fill="none" stroke="black" d="M188.22,-367.7C218.29,-372.64 261.69,-380.49 299.03,-390 339.75,-400.37 349.71,-404.15 389.03,-419 398.84,-422.71 409.36,-427.12 418.89,-431.29"/>
<polygon fill="black" stroke="black" points="417.21,-434.37 427.77,-435.23 420.05,-427.97 417.21,-434.37"/>
</g>
<!-- 8 -->
<g id="node13" class="node" pointer-events="visible" data-name="8">

<ellipse fill="none" stroke="black" cx="542.03" cy="-446" rx="27" ry="18"/>
<text text-anchor="middle" x="542.03" y="-441.8" font-family="Times,serif" font-size="14.00">8</text>
</g>
<!-- Module2&#45;&gt;8 -->
<g id="edge12" class="edge" data-name="Part_II-&gt;8" data-comment="Module2-&gt;8">

<path fill="none" stroke="black" d="M201.75,-363.07C230.43,-364.26 266.91,-366.77 299.03,-372 380.63,-385.29 400.89,-391.97 479.03,-419 489.02,-422.46 499.66,-426.83 509.25,-431.04"/>
<polygon fill="black" stroke="black" points="507.61,-434.13 518.17,-435.04 510.48,-427.75 507.61,-434.13"/>
</g>
<!-- 9 -->
<g id="node14" class="node" pointer-events="visible" data-name="9">

<ellipse fill="none" stroke="black" cx="272.03" cy="-255" rx="27" ry="18"/>
<text text-anchor="middle" x="272.03" y="-250.8" font-family="Times,serif" font-size="14.00">9</text>
</g>
<!-- Module3&#45;&gt;9 -->
<g id="edge13" class="edge" data-name="Part_III-&gt;9" data-comment="Module3-&gt;9">

<path fill="none" stroke="black" d="M177.19,-218.98C194.8,-225.74 218.23,-234.74 237.28,-242.05"/>
<polygon fill="black" stroke="black" points="235.91,-245.27 246.5,-245.58 238.41,-238.73 235.91,-245.27"/>
</g>
<!-- 10 -->
<g id="node15" class="node" pointer-events="visible" data-name="10">

<ellipse fill="none" stroke="black" cx="362.03" cy="-255" rx="27" ry="18"/>
<text text-anchor="middle" x="362.03" y="-250.8" font-family="Times,serif" font-size="14.00">10</text>
</g>
<!-- Module3&#45;&gt;10 -->
<g id="edge14" class="edge" data-name="Part_III-&gt;10" data-comment="Module3-&gt;10">

<path fill="none" stroke="black" d="M200.48,-211.83C229.56,-214.36 266.85,-219.12 299.03,-228 309.31,-230.84 320.09,-235.06 329.74,-239.33"/>
<polygon fill="black" stroke="black" points="328.13,-242.44 338.68,-243.46 331.07,-236.08 328.13,-242.44"/>
</g>
<!-- 11 -->
<g id="node16" class="node" pointer-events="visible" data-name="11">

<ellipse fill="none" stroke="black" cx="452.03" cy="-255" rx="27" ry="18"/>
<text text-anchor="middle" x="452.03" y="-250.8" font-family="Times,serif" font-size="14.00">11</text>
</g>
<!-- Module3&#45;&gt;11 -->
<g id="edge15" class="edge" data-name="Part_III-&gt;11" data-comment="Module3-&gt;11">

<path fill="none" stroke="black" d="M202.92,-206.88C251.9,-206.33 326.97,-209.26 389.03,-228 399.15,-231.06 409.83,-235.31 419.42,-239.53"/>
<polygon fill="black" stroke="black" points="417.76,-242.62 428.31,-243.6 420.67,-236.26 417.76,-242.62"/>
</g>
<!-- 12 -->
<g id="node17" class="node" pointer-events="visible" data-name="12">

<ellipse fill="none" stroke="black" cx="542.03" cy="-255" rx="27" ry="18"/>
<text text-anchor="middle" x="542.03" y="-250.8" font-family="Times,serif" font-size="14.00">12</text>
</g>
<!-- Module3&#45;&gt;12 -->
<g id="edge16" class="edge" data-name="Part_III-&gt;12" data-comment="Module3-&gt;12">

<path fill="none" stroke="black" d="M197.48,-205.17C210.28,-204.27 224.19,-203.45 237.03,-203 345.09,-199.23 375.52,-196.74 479.03,-228 489.15,-231.06 499.83,-235.31 509.42,-239.53"/>
<polygon fill="black" stroke="black" points="507.76,-242.62 518.31,-243.6 510.67,-236.26 507.76,-242.62"/>
</g>
<!-- 13 -->
<g id="node18" class="node" pointer-events="visible" data-name="13">

<ellipse fill="none" stroke="black" cx="272.03" cy="-64" rx="27" ry="18"/>
<text text-anchor="middle" x="272.03" y="-59.8" font-family="Times,serif" font-size="14.00">13</text>
</g>
<!-- Module4&#45;&gt;13 -->
<g id="edge17" class="edge" data-name="Part_IV-&gt;13" data-comment="Module4-&gt;13">

<path fill="none" stroke="black" d="M177.48,-28.09C195.11,-34.86 218.47,-43.83 237.44,-51.11"/>
<polygon fill="black" stroke="black" points="236.02,-54.31 246.61,-54.63 238.53,-47.78 236.02,-54.31"/>
</g>
<!-- 14 -->
<g id="node19" class="node" pointer-events="visible" data-name="14">

<ellipse fill="none" stroke="black" cx="362.03" cy="-64" rx="27" ry="18"/>
<text text-anchor="middle" x="362.03" y="-59.8" font-family="Times,serif" font-size="14.00">14</text>
</g>
<!-- Module4&#45;&gt;14 -->
<g id="edge18" class="edge" data-name="Part_IV-&gt;14" data-comment="Module4-&gt;14">

<path fill="none" stroke="black" d="M200.82,-20.86C229.85,-23.4 266.97,-28.15 299.03,-37 309.31,-39.84 320.09,-44.06 329.74,-48.33"/>
<polygon fill="black" stroke="black" points="328.13,-51.44 338.68,-52.46 331.07,-45.08 328.13,-51.44"/>
</g>
<!-- 15 -->
<g id="node20" class="node" pointer-events="visible" data-name="15">

<ellipse fill="none" stroke="black" cx="452.03" cy="-64" rx="27" ry="18"/>
<text text-anchor="middle" x="452.03" y="-59.8" font-family="Times,serif" font-size="14.00">15</text>
</g>
<!-- Module4&#45;&gt;15 -->
<g id="edge19" class="edge" data-name="Part_IV-&gt;15" data-comment="Module4-&gt;15">

<path fill="none" stroke="black" d="M203.39,-15.88C252.38,-15.35 327.17,-18.32 389.03,-37 399.15,-40.06 409.83,-44.31 419.42,-48.53"/>
<polygon fill="black" stroke="black" points="417.76,-51.62 428.31,-52.6 420.67,-45.26 417.76,-51.62"/>
</g>
<!-- 16 -->
<g id="node21" class="node" pointer-events="visible" data-name="16">

<ellipse fill="none" stroke="black" cx="542.03" cy="-64" rx="27" ry="18"/>
<text text-anchor="middle" x="542.03" y="-59.8" font-family="Times,serif" font-size="14.00">16</text>
</g>
<!-- Module4&#45;&gt;16 -->
<g id="edge20" class="edge" data-name="Part_IV-&gt;16" data-comment="Module4-&gt;16">

<path fill="none" stroke="black" d="M197.93,-14.14C210.61,-13.25 224.34,-12.44 237.03,-12 345.09,-8.23 375.52,-5.74 479.03,-37 489.15,-40.06 499.83,-44.31 509.42,-48.53"/>
<polygon fill="black" stroke="black" points="507.76,-51.62 518.31,-52.6 510.67,-45.26 507.76,-51.62"/>
</g>
<!-- 1&#45;&gt;2 -->
<g id="edge21" class="edge" data-name="1-&gt;2">

<path fill="none" stroke="black" d="M299.43,-637C306.91,-637 315.21,-637 323.23,-637"/>
<polygon fill="black" stroke="black" points="323.13,-640.5 333.13,-637 323.13,-633.5 323.13,-640.5"/>
</g>
<!-- 2&#45;&gt;3 -->
<g id="edge22" class="edge" data-name="2-&gt;3">

<path fill="none" stroke="black" d="M389.43,-637C396.91,-637 405.21,-637 413.23,-637"/>
<polygon fill="black" stroke="black" points="413.13,-640.5 423.13,-637 413.13,-633.5 413.13,-640.5"/>
</g>
<!-- 3&#45;&gt;4 -->
<g id="edge23" class="edge" data-name="3-&gt;4">

<path fill="none" stroke="black" d="M479.43,-637C486.91,-637 495.21,-637 503.23,-637"/>
<polygon fill="black" stroke="black" points="503.13,-640.5 513.13,-637 503.13,-633.5 503.13,-640.5"/>
</g>
<!-- 5&#45;&gt;6 -->
<g id="edge24" class="edge" data-name="5-&gt;6">

<path fill="none" stroke="black" d="M299.43,-446C306.91,-446 315.21,-446 323.23,-446"/>
<polygon fill="black" stroke="black" points="323.13,-449.5 333.13,-446 323.13,-442.5 323.13,-449.5"/>
</g>
<!-- 6&#45;&gt;7 -->
<g id="edge25" class="edge" data-name="6-&gt;7">

<path fill="none" stroke="black" d="M389.43,-446C396.91,-446 405.21,-446 413.23,-446"/>
<polygon fill="black" stroke="black" points="413.13,-449.5 423.13,-446 413.13,-442.5 413.13,-449.5"/>
</g>
<!-- 7&#45;&gt;8 -->
<g id="edge26" class="edge" data-name="7-&gt;8">

<path fill="none" stroke="black" d="M479.43,-446C486.91,-446 495.21,-446 503.23,-446"/>
<polygon fill="black" stroke="black" points="503.13,-449.5 513.13,-446 503.13,-442.5 503.13,-449.5"/>
</g>
<!-- 9&#45;&gt;10 -->
<g id="edge27" class="edge" data-name="9-&gt;10">

<path fill="none" stroke="black" d="M299.43,-255C306.91,-255 315.21,-255 323.23,-255"/>
<polygon fill="black" stroke="black" points="323.13,-258.5 333.13,-255 323.13,-251.5 323.13,-258.5"/>
</g>
<!-- 10&#45;&gt;11 -->
<g id="edge28" class="edge" data-name="10-&gt;11">

<path fill="none" stroke="black" d="M389.43,-255C396.91,-255 405.21,-255 413.23,-255"/>
<polygon fill="black" stroke="black" points="413.13,-258.5 423.13,-255 413.13,-251.5 413.13,-258.5"/>
</g>
<!-- 11&#45;&gt;12 -->
<g id="edge29" class="edge" data-name="11-&gt;12">

<path fill="none" stroke="black" d="M479.43,-255C486.91,-255 495.21,-255 503.23,-255"/>
<polygon fill="black" stroke="black" points="503.13,-258.5 513.13,-255 503.13,-251.5 503.13,-258.5"/>
</g>
<!-- 13&#45;&gt;14 -->
<g id="edge30" class="edge" data-name="13-&gt;14">

<path fill="none" stroke="black" d="M299.43,-64C306.91,-64 315.21,-64 323.23,-64"/>
<polygon fill="black" stroke="black" points="323.13,-67.5 333.13,-64 323.13,-60.5 323.13,-67.5"/>
</g>
<!-- 14&#45;&gt;15 -->
<g id="edge31" class="edge" data-name="14-&gt;15">

<path fill="none" stroke="black" d="M389.43,-64C396.91,-64 405.21,-64 413.23,-64"/>
<polygon fill="black" stroke="black" points="413.13,-67.5 423.13,-64 413.13,-60.5 413.13,-67.5"/>
</g>
<!-- 15&#45;&gt;16 -->
<g id="edge32" class="edge" data-name="15-&gt;16">

<path fill="none" stroke="black" d="M479.43,-64C486.91,-64 495.21,-64 503.23,-64"/>
<polygon fill="black" stroke="black" points="503.13,-67.5 513.13,-64 503.13,-60.5 503.13,-67.5"/>
</g>
</g>
</svg>