<?xml version="1.0" standalone="no"?>
<svg xmlns="http://www.w3.org/2000/svg" xmlns:xlink="http://www.w3.org/1999/xlink" width="1705pt" height="622pt" viewBox="0.00 0.00 1704.73 621.88">
<g id="graph0" class="graph" transform="translate(-77.97936333276982,1079.0852001829091) scale(2.000000000000005)" data-name="G">

<polygon fill="white" stroke="none" points="-4,4 -4,-617.88 1700.73,-617.88 1700.73,4 -4,4" style=""/>
<g id="clust1" class="cluster" data-name="cluster_0">

<defs style="">
<linearGradient id="clust1_l_0" gradientUnits="userSpaceOnUse" x1="252.69" y1="-500.42" x2="1688.73" y2="-500.42" style="">
<stop offset="0" style="stop-color:darkgray;stop-opacity:1.;"/>
<stop offset="1" style="stop-color:gold;stop-opacity:1.;"/>
</linearGradient>
</defs>
<polygon fill="url(#l_0)" stroke="lightgrey" points="252.69,-461.92 252.69,-538.92 1688.73,-538.92 1688.73,-461.92 252.69,-461.92" style=""/>
<text text-anchor="middle" x="970.71" y="-522.32" font-family="Times,serif" font-size="14.00" style="">Core Logistics Operations #1</text>
</g>
<g id="clust2" class="cluster" data-name="cluster_1">

<defs style="">
<linearGradient id="clust2_l_1" gradientUnits="userSpaceOnUse" x1="208.21" y1="-256.42" x2="1430.62" y2="-256.42" style="">
<stop offset="0" style="stop-color:darkgray;stop-opacity:1.;"/>
<stop offset="1" style="stop-color:gold;stop-opacity:1.;"/>
</linearGradient>
</defs>
<polygon fill="url(#l_1)" stroke="lightgrey" points="208.21,-217.92 208.21,-294.92 1430.62,-294.92 1430.62,-217.92 208.21,-217.92" style=""/>
<text text-anchor="middle" x="819.41" y="-278.32" font-family="Times,serif" font-size="14.00" style="">Traffic Department Operations Manual #2</text>
</g>
<g id="clust3" class="cluster" data-name="cluster_2">

<defs style="">
<linearGradient id="clust3_l_2" gradientUnits="userSpaceOnUse" x1="298.42" y1="-88.42" x2="1172.35" y2="-88.42" style="">
<stop offset="0" style="stop-color:darkgray;stop-opacity:1.;"/>
<stop offset="1" style="stop-color:gold;stop-opacity:1.;"/>
</linearGradient>
</defs>
<polygon fill="url(#l_2)" stroke="lightgrey" points="298.42,-49.92 298.42,-126.92 1172.35,-126.92 1172.35,-49.92 298.42,-49.92" style=""/>
<text text-anchor="middle" x="735.38" y="-110.32" font-family="Times,serif" font-size="14.00" style="">Financial Management &amp; Factoring  #3</text>
</g>
<!-- App -->
<g id="node1" class="node" pointer-events="visible" data-name="App">

<ellipse fill="none" stroke="lightskyblue" cx="27.67" cy="-289.92" rx="27.84" ry="27.84" style=""/>
<polyline fill="none" stroke="lightskyblue" points="45.97,-310.67 9.37,-310.67" style=""/>
<polyline fill="none" stroke="lightskyblue" points="45.97,-269.17 9.37,-269.17" style=""/>
<text text-anchor="middle" x="27.67" y="-285.72" font-family="Times,serif" font-size="14.00" style="">App</text>
</g>
<!-- Start -->
<g id="node2" class="node" pointer-events="visible" data-name="Start">

<polygon fill="none" stroke="lightgreen" points="135.77,-505.92 94.47,-487.92 135.77,-469.92 177.07,-487.92 135.77,-505.92" style=""/>
<polyline fill="none" stroke="lightgreen" points="105.47,-492.71 105.47,-483.12" style=""/>
<polyline fill="none" stroke="lightgreen" points="124.77,-474.71 146.77,-474.71" style=""/>
<polyline fill="none" stroke="lightgreen" points="166.07,-483.12 166.07,-492.71" style=""/>
<polyline fill="none" stroke="lightgreen" points="146.77,-501.12 124.77,-501.12" style=""/>
<text text-anchor="middle" x="135.77" y="-483.72" font-family="Times,serif" font-size="14.00" style="">Start</text>
</g>
<!-- App&#45;&gt;Start -->
<g id="edge1" class="edge" data-name="App-&gt;Start">

<path fill="none" stroke="black" d="M41.68,-314.2C62.06,-352.24 101.3,-425.46 121.71,-463.56" style=""/>
<polygon fill="black" stroke="black" points="118.42,-464.81 126.23,-471.98 124.59,-461.51 118.42,-464.81" style=""/>
</g>
<!-- Road -->
<g id="node3" class="node" pointer-events="visible" data-name="Road">

<polygon fill="none" stroke="lightgreen" points="135.77,-307.92 91.4,-289.92 135.77,-271.92 180.14,-289.92 135.77,-307.92" style=""/>
<polyline fill="none" stroke="lightgreen" points="102.52,-294.43 102.52,-285.41" style=""/>
<polyline fill="none" stroke="lightgreen" points="124.65,-276.43 146.89,-276.43" style=""/>
<polyline fill="none" stroke="lightgreen" points="169.02,-285.41 169.02,-294.43" style=""/>
<polyline fill="none" stroke="lightgreen" points="146.89,-303.41 124.65,-303.41" style=""/>
<text text-anchor="middle" x="135.77" y="-285.72" font-family="Times,serif" font-size="14.00" style="">Road</text>
</g>
<!-- App&#45;&gt;Road -->
<g id="edge2" class="edge" data-name="App-&gt;Road">

<path fill="none" stroke="black" d="M55.99,-289.92C63.09,-289.92 70.99,-289.92 78.98,-289.92" style=""/>
<polygon fill="black" stroke="black" points="78.74,-293.42 88.74,-289.92 78.74,-286.42 78.74,-293.42" style=""/>
</g>
<!-- End -->
<g id="node4" class="node" pointer-events="visible" data-name="End">

<polygon fill="none" stroke="lightgreen" points="135.77,-139.92 98.06,-121.92 135.77,-103.92 173.49,-121.92 135.77,-139.92" style=""/>
<polyline fill="none" stroke="lightgreen" points="108.89,-127.09 108.89,-116.75" style=""/>
<polyline fill="none" stroke="lightgreen" points="124.94,-109.09 146.6,-109.09" style=""/>
<polyline fill="none" stroke="lightgreen" points="162.66,-116.75 162.66,-127.09" style=""/>
<polyline fill="none" stroke="lightgreen" points="146.6,-134.75 124.94,-134.75" style=""/>
<text text-anchor="middle" x="135.77" y="-117.72" font-family="Times,serif" font-size="14.00" style="">End</text>
</g>
<!-- App&#45;&gt;End -->
<g id="edge3" class="edge" data-name="App-&gt;End">

<path fill="none" stroke="black" d="M43.42,-266.56C63.66,-234.51 99.84,-177.23 120.06,-145.21" style=""/>
<polygon fill="black" stroke="black" points="122.84,-147.37 125.22,-137.05 116.92,-143.63 122.84,-147.37" style=""/>
</g>
<!-- Booking_Loads -->
<g id="node5" class="node" pointer-events="visible" data-name="Booking_Loads">

<ellipse fill="none" stroke="black" cx="333.42" cy="-487.92" rx="72.96" ry="18" style=""/>
<text text-anchor="middle" x="333.42" y="-483.72" font-family="Times,serif" font-size="14.00" style="">Booking_Loads</text>
</g>
<!-- Start&#45;&gt;Booking_Loads -->
<g id="edge4" class="edge" data-name="Start-&gt;Booking_Loads">

<path fill="none" stroke="black" d="M178.26,-487.92C198.79,-487.92 224.34,-487.92 248.7,-487.92" style=""/>
<polygon fill="black" stroke="black" points="248.65,-491.42 258.65,-487.92 248.65,-484.42 248.65,-491.42" style=""/>
</g>
<!-- Calendar_Management -->
<g id="node6" class="node" pointer-events="visible" data-name="Calendar_Management">

<ellipse fill="none" stroke="black" cx="628.02" cy="-487.92" rx="101.26" ry="18" style=""/>
<text text-anchor="middle" x="628.02" y="-483.72" font-family="Times,serif" font-size="14.00" style="">Calendar_Management</text>
</g>
<!-- Start&#45;&gt;Calendar_Management -->
<g id="edge5" class="edge" data-name="Start-&gt;Calendar_Management">

<path fill="none" stroke="black" d="M156.23,-497.47C170.29,-503.82 189.95,-511.58 208.21,-514.92 326.41,-536.51 466.13,-519.08 550.59,-503.94" style=""/>
<polygon fill="black" stroke="black" points="551.18,-507.39 560.39,-502.14 549.92,-500.5 551.18,-507.39" style=""/>
</g>
<!-- Load_Tracking -->
<g id="node7" class="node" pointer-events="visible" data-name="Load_Tracking">

<ellipse fill="none" stroke="black" cx="907.63" cy="-487.92" rx="70.63" ry="18" style=""/>
<text text-anchor="middle" x="907.63" y="-483.72" font-family="Times,serif" font-size="14.00" style="">Load_Tracking</text>
</g>
<!-- Start&#45;&gt;Load_Tracking -->
<g id="edge6" class="edge" data-name="Start-&gt;Load_Tracking">

<path fill="none" stroke="black" d="M156.23,-478.37C170.29,-472.02 189.95,-464.25 208.21,-460.92 453.57,-416.1 521.16,-436.73 769.4,-460.92 794.11,-463.33 820.98,-468.12 844.34,-473.01" style=""/>
<polygon fill="black" stroke="black" points="843.51,-476.41 854.02,-475.09 844.98,-469.57 843.51,-476.41" style=""/>
</g>
<!-- Dispatching_Drivers -->
<g id="node8" class="node" pointer-events="visible" data-name="Dispatching_Drivers">

<ellipse fill="none" stroke="black" cx="1137.35" cy="-487.92" rx="91.49" ry="18" style=""/>
<text text-anchor="middle" x="1137.35" y="-483.72" font-family="Times,serif" font-size="14.00" style="">Dispatching_Drivers</text>
</g>
<!-- Start&#45;&gt;Dispatching_Drivers -->
<g id="edge7" class="edge" data-name="Start-&gt;Dispatching_Drivers">

<path fill="none" stroke="black" d="M150.33,-500.09C163.88,-511.36 185.85,-527.34 208.21,-533.92 311.58,-564.32 342.91,-535.75 450.64,-533.92 699.29,-529.7 763.02,-545.21 1009.85,-514.92 1029.05,-512.56 1049.64,-508.74 1068.52,-504.7" style=""/>
<polygon fill="black" stroke="black" points="1069.23,-508.12 1078.24,-502.56 1067.72,-501.29 1069.23,-508.12" style=""/>
</g>
<!-- Payroll_Settlement -->
<g id="node9" class="node" pointer-events="visible" data-name="Payroll_Settlement">

<ellipse fill="none" stroke="black" cx="1349.9" cy="-487.92" rx="85.12" ry="18" style=""/>
<text text-anchor="middle" x="1349.9" y="-483.72" font-family="Times,serif" font-size="14.00" style="">Payroll_Settlement</text>
</g>
<!-- Start&#45;&gt;Payroll_Settlement -->
<g id="edge8" class="edge" data-name="Start-&gt;Payroll_Settlement">

<path fill="none" stroke="black" d="M148.12,-474.77C161.07,-460.82 183.65,-439.5 208.21,-429.92 381.95,-362.13 440.52,-403.92 627.02,-403.92 627.02,-403.92 627.02,-403.92 908.63,-403.92 1047.52,-403.92 1206.76,-444.75 1290.45,-469.48" style=""/>
<polygon fill="black" stroke="black" points="1289.23,-472.77 1299.81,-472.27 1291.23,-466.06 1289.23,-472.77" style=""/>
</g>
<!-- BOL_Before_Departure -->
<g id="node10" class="node" pointer-events="visible" data-name="BOL_Before_Departure">

<ellipse fill="none" stroke="black" cx="1575.85" cy="-487.92" rx="104.77" ry="18" style=""/>
<text text-anchor="middle" x="1575.85" y="-483.72" font-family="Times,serif" font-size="14.00" style="">BOL_Before_Departure</text>
</g>
<!-- Start&#45;&gt;BOL_Before_Departure -->
<g id="edge9" class="edge" data-name="Start-&gt;BOL_Before_Departure">

<path fill="none" stroke="black" d="M146.97,-501.4C159.52,-516.91 182.38,-541.78 208.21,-553.92 378.16,-633.81 439.22,-609.92 627.02,-609.92 627.02,-609.92 627.02,-609.92 1138.35,-609.92 1285.27,-609.92 1450.08,-545.02 1528.52,-509.89" style=""/>
<polygon fill="black" stroke="black" points="1529.97,-513.08 1537.63,-505.76 1527.08,-506.7 1529.97,-513.08" style=""/>
</g>
<!-- Overview_of_Traffic_Dept -->
<g id="node11" class="node" pointer-events="visible" data-name="Overview_of_Traffic_Dept">

<ellipse fill="none" stroke="black" cx="333.42" cy="-243.92" rx="117.43" ry="18" style=""/>
<text text-anchor="middle" x="333.42" y="-239.72" font-family="Times,serif" font-size="14.00" style="">Overview_of_Traffic_Dept</text>
</g>
<!-- Road&#45;&gt;Overview_of_Traffic_Dept -->
<g id="edge10" class="edge" data-name="Road-&gt;Overview_of_Traffic_Dept">

<path fill="none" stroke="black" d="M164.8,-283.33C188.82,-277.68 224.55,-269.28 256.86,-261.69" style=""/>
<polygon fill="black" stroke="black" points="257.25,-265.19 266.19,-259.49 255.65,-258.37 257.25,-265.19" style=""/>
</g>
<!-- Sending_Driver_Info_to_Brokers -->
<g id="node12" class="node" pointer-events="visible" data-name="Sending_Driver_Info_to_Brokers">

<ellipse fill="none" stroke="black" cx="628.02" cy="-243.92" rx="141.26" ry="18" style=""/>
<text text-anchor="middle" x="628.02" y="-239.72" font-family="Times,serif" font-size="14.00" style="">Sending_Driver_Info_to_Brokers</text>
</g>
<!-- Road&#45;&gt;Sending_Driver_Info_to_Brokers -->
<g id="edge11" class="edge" data-name="Road-&gt;Sending_Driver_Info_to_Brokers">

<path fill="none" stroke="black" d="M178.25,-288.62C238.41,-286.45 353.34,-281.29 450.64,-270.92 476.67,-268.15 504.73,-264.26 530.64,-260.3" style=""/>
<polygon fill="black" stroke="black" points="531.15,-263.76 540.5,-258.77 530.08,-256.85 531.15,-263.76" style=""/>
</g>
<!-- Dispatch_Confirmation -->
<g id="node13" class="node" pointer-events="visible" data-name="Dispatch_Confirmation">

<ellipse fill="none" stroke="black" cx="907.63" cy="-243.92" rx="102.45" ry="18" style=""/>
<text text-anchor="middle" x="907.63" y="-239.72" font-family="Times,serif" font-size="14.00" style="">Dispatch_Confirmation</text>
</g>
<!-- Road&#45;&gt;Dispatch_Confirmation -->
<g id="edge12" class="edge" data-name="Road-&gt;Dispatch_Confirmation">

<path fill="none" stroke="black" d="M145.51,-275.62C157.25,-257.97 179.93,-228.81 208.21,-216.92 323.16,-168.57 645.28,-204.82 769.4,-216.92 790.71,-219 813.61,-222.84 834.49,-227" style=""/>
<polygon fill="black" stroke="black" points="833.54,-230.38 844.04,-228.95 834.95,-223.52 833.54,-230.38" style=""/>
</g>
<!-- ETA_Shipper -->
<g id="node14" class="node" pointer-events="visible" data-name="ETA_Shipper">

<ellipse fill="none" stroke="black" cx="1137.35" cy="-243.92" rx="64.86" ry="18" style=""/>
<text text-anchor="middle" x="1137.35" y="-239.72" font-family="Times,serif" font-size="14.00" style="">ETA_Shipper</text>
</g>
<!-- Road&#45;&gt;ETA_Shipper -->
<g id="edge13" class="edge" data-name="Road-&gt;ETA_Shipper">

<path fill="none" stroke="black" d="M176.14,-291.93C299.63,-297.64 690.18,-311.02 1009.85,-270.92 1032.14,-268.12 1056.32,-263.39 1077.51,-258.66" style=""/>
<polygon fill="black" stroke="black" points="1078.18,-262.1 1087.15,-256.46 1076.62,-255.28 1078.18,-262.1" style=""/>
</g>
<!-- Driver_Activity -->
<g id="node15" class="node" pointer-events="visible" data-name="Driver_Activity">

<ellipse fill="none" stroke="black" cx="1349.9" cy="-243.92" rx="72.94" ry="18" style=""/>
<text text-anchor="middle" x="1349.9" y="-239.72" font-family="Times,serif" font-size="14.00" style="">Driver_Activity</text>
</g>
<!-- Road&#45;&gt;Driver_Activity -->
<g id="edge14" class="edge" data-name="Road-&gt;Driver_Activity">

<path fill="none" stroke="black" d="M161.69,-297.82C175.32,-301.91 192.56,-306.7 208.21,-309.92 392.15,-347.77 439.22,-365.92 627.02,-365.92 627.02,-365.92 627.02,-365.92 908.63,-365.92 1058.24,-365.92 1226.41,-299.68 1304.56,-264.82" style=""/>
<polygon fill="black" stroke="black" points="1305.92,-268.05 1313.6,-260.74 1303.04,-261.66 1305.92,-268.05" style=""/>
</g>
<!-- 9 -->
<g id="node16" class="node" pointer-events="visible" data-name="9">

<ellipse fill="none" stroke="black" cx="333.42" cy="-75.92" rx="27" ry="18" style=""/>
<text text-anchor="middle" x="333.42" y="-71.72" font-family="Times,serif" font-size="14.00" style="">9</text>
</g>
<!-- End&#45;&gt;9 -->
<g id="edge15" class="edge" data-name="End-&gt;9">

<path fill="none" stroke="black" d="M161.95,-116C196.16,-107.96 257.53,-93.53 296.55,-84.35" style=""/>
<polygon fill="black" stroke="black" points="297.24,-87.79 306.18,-82.09 295.64,-80.97 297.24,-87.79" style=""/>
</g>
<!-- 10 -->
<g id="node17" class="node" pointer-events="visible" data-name="10">

<ellipse fill="none" stroke="black" cx="628.02" cy="-75.92" rx="27" ry="18" style=""/>
<text text-anchor="middle" x="628.02" y="-71.72" font-family="Times,serif" font-size="14.00" style="">10</text>
</g>
<!-- End&#45;&gt;10 -->
<g id="edge16" class="edge" data-name="End-&gt;10">

<path fill="none" stroke="black" d="M172.16,-120.83C230.38,-118.81 349.94,-113.65 450.64,-102.92 499.21,-97.74 554.86,-88.7 590.44,-82.52" style=""/>
<polygon fill="black" stroke="black" points="590.97,-85.98 600.21,-80.8 589.76,-79.08 590.97,-85.98" style=""/>
</g>
<!-- 11 -->
<g id="node18" class="node" pointer-events="visible" data-name="11">

<ellipse fill="none" stroke="black" cx="907.63" cy="-75.92" rx="27" ry="18" style=""/>
<text text-anchor="middle" x="907.63" y="-71.72" font-family="Times,serif" font-size="14.00" style="">11</text>
</g>
<!-- End&#45;&gt;11 -->
<g id="edge17" class="edge" data-name="End-&gt;11">

<path fill="none" stroke="black" d="M145.31,-107.93C156.98,-90.31 179.77,-60.88 208.21,-48.92 438.12,47.78 521.16,-24.73 769.4,-48.92 804.29,-52.32 843.47,-60.47 871.01,-66.93" style=""/>
<polygon fill="black" stroke="black" points="870.04,-70.3 880.58,-69.23 871.67,-63.49 870.04,-70.3" style=""/>
</g>
<!-- 12 -->
<g id="node19" class="node" pointer-events="visible" data-name="12">

<ellipse fill="none" stroke="black" cx="1137.35" cy="-75.92" rx="27" ry="18" style=""/>
<text text-anchor="middle" x="1137.35" y="-71.72" font-family="Times,serif" font-size="14.00" style="">12</text>
</g>
<!-- End&#45;&gt;12 -->
<g id="edge18" class="edge" data-name="End-&gt;12">

<path fill="none" stroke="black" d="M170.66,-123.68C287.67,-129.22 685.29,-143.64 1009.85,-102.92 1040.96,-99.02 1075.76,-91.34 1100.97,-85.17" style=""/>
<polygon fill="black" stroke="black" points="1101.51,-88.64 1110.37,-82.82 1099.82,-81.85 1101.51,-88.64" style=""/>
</g>
<!-- Booking_Loads&#45;&gt;Calendar_Management -->
<g id="edge19" class="edge" data-name="Booking_Loads-&gt;Calendar_Management">

<path fill="none" stroke="black" d="M406.75,-487.92C439.42,-487.92 478.76,-487.92 515.1,-487.92" style=""/>
<polygon fill="black" stroke="black" points="514.76,-491.42 524.76,-487.92 514.76,-484.42 514.76,-491.42" style=""/>
</g>
<!-- Calendar_Management&#45;&gt;Load_Tracking -->
<g id="edge20" class="edge" data-name="Calendar_Management-&gt;Load_Tracking">

<path fill="none" stroke="black" d="M729.63,-487.92C761.14,-487.92 795.5,-487.92 825.49,-487.92" style=""/>
<polygon fill="black" stroke="black" points="825.24,-491.42 835.24,-487.92 825.24,-484.42 825.24,-491.42" style=""/>
</g>
<!-- Load_Tracking&#45;&gt;Dispatching_Drivers -->
<g id="edge21" class="edge" data-name="Load_Tracking-&gt;Dispatching_Drivers">

<path fill="none" stroke="black" d="M978.5,-487.92C996.12,-487.92 1015.4,-487.92 1034.25,-487.92" style=""/>
<polygon fill="black" stroke="black" points="1034.08,-491.42 1044.08,-487.92 1034.08,-484.42 1034.08,-491.42" style=""/>
</g>
<!-- Dispatching_Drivers&#45;&gt;Payroll_Settlement -->
<g id="edge22" class="edge" data-name="Dispatching_Drivers-&gt;Payroll_Settlement">

<path fill="none" stroke="black" d="M1229.17,-487.92C1237.02,-487.92 1244.98,-487.92 1252.87,-487.92" style=""/>
<polygon fill="black" stroke="black" points="1252.85,-491.42 1262.85,-487.92 1252.85,-484.42 1252.85,-491.42" style=""/>
</g>
<!-- Payroll_Settlement&#45;&gt;BOL_Before_Departure -->
<g id="edge23" class="edge" data-name="Payroll_Settlement-&gt;BOL_Before_Departure">

<path fill="none" stroke="black" d="M1435.25,-487.92C1443.17,-487.92 1451.29,-487.92 1459.43,-487.92" style=""/>
<polygon fill="black" stroke="black" points="1459.43,-491.42 1469.43,-487.92 1459.43,-484.42 1459.43,-491.42" style=""/>
</g>
<!-- Overview_of_Traffic_Dept&#45;&gt;Sending_Driver_Info_to_Brokers -->
<g id="edge24" class="edge" data-name="Overview_of_Traffic_Dept-&gt;Sending_Driver_Info_to_Brokers">

<path fill="none" stroke="black" d="M451.33,-243.92C459.22,-243.92 467.24,-243.92 475.28,-243.92" style=""/>
<polygon fill="black" stroke="black" points="475.14,-247.42 485.14,-243.92 475.14,-240.42 475.14,-247.42" style=""/>
</g>
<!-- Sending_Driver_Info_to_Brokers&#45;&gt;Dispatch_Confirmation -->
<g id="edge25" class="edge" data-name="Sending_Driver_Info_to_Brokers-&gt;Dispatch_Confirmation">

<path fill="none" stroke="black" d="M769.45,-243.92C777.49,-243.92 785.53,-243.92 793.44,-243.92" style=""/>
<polygon fill="black" stroke="black" points="793.44,-247.42 803.44,-243.92 793.44,-240.42 793.44,-247.42" style=""/>
</g>
<!-- Dispatch_Confirmation&#45;&gt;ETA_Shipper -->
<g id="edge26" class="edge" data-name="Dispatch_Confirmation-&gt;ETA_Shipper">

<path fill="none" stroke="black" d="M1010.5,-243.92C1027.36,-243.92 1044.59,-243.92 1060.66,-243.92" style=""/>
<polygon fill="black" stroke="black" points="1060.63,-247.42 1070.63,-243.92 1060.63,-240.42 1060.63,-247.42" style=""/>
</g>
<!-- ETA_Shipper&#45;&gt;Driver_Activity -->
<g id="edge27" class="edge" data-name="ETA_Shipper-&gt;Driver_Activity">

<path fill="none" stroke="black" d="M1202.66,-243.92C1222.36,-243.92 1244.32,-243.92 1265.11,-243.92" style=""/>
<polygon fill="black" stroke="black" points="1265.01,-247.42 1275.01,-243.92 1265.01,-240.42 1265.01,-247.42" style=""/>
</g>
<!-- 9&#45;&gt;10 -->
<g id="edge28" class="edge" data-name="9-&gt;10">

<path fill="none" stroke="black" d="M360.9,-75.92C413.13,-75.92 529.53,-75.92 589.58,-75.92" style=""/>
<polygon fill="black" stroke="black" points="589.29,-79.42 599.29,-75.92 589.29,-72.42 589.29,-79.42" style=""/>
</g>
<!-- 10&#45;&gt;11 -->
<g id="edge29" class="edge" data-name="10-&gt;11">

<path fill="none" stroke="black" d="M655.39,-75.92C704.92,-75.92 812,-75.92 869.06,-75.92" style=""/>
<polygon fill="black" stroke="black" points="868.92,-79.42 878.92,-75.92 868.92,-72.42 868.92,-79.42" style=""/>
</g>
<!-- 11&#45;&gt;12 -->
<g id="edge30" class="edge" data-name="11-&gt;12">

<path fill="none" stroke="black" d="M934.75,-75.92C975.05,-75.92 1052.56,-75.92 1098.85,-75.92" style=""/>
<polygon fill="black" stroke="black" points="1098.67,-79.42 1108.67,-75.92 1098.67,-72.42 1098.67,-79.42" style=""/>
</g>
</g>
</svg>