<?xml version="1.0" standalone="no"?>
<svg xmlns="http://www.w3.org/2000/svg" xmlns:xlink="http://www.w3.org/1999/xlink" width="1149pt" height="276pt" viewBox="0.00 0.00 1149.36 276">
<g id="graph0" class="graph" transform="translate(4,272) scale(1)" data-name="">
<polygon fill="white" stroke="none" points="-4,4 -4,-272 1145.36,-272 1145.36,4 -4,4"/>
<g id="clust1" class="cluster" data-name="cluster_0">

<polygon fill="none" stroke="black" points="557.36,-208 557.36,-260 795.36,-260 795.36,-208 557.36,-208"/>
</g>
<g id="clust2" class="cluster" data-name="cluster_1">

<polygon fill="none" stroke="black" points="218.36,-136 218.36,-188 464.36,-188 464.36,-136 218.36,-136"/>
</g>
<g id="clust3" class="cluster" data-name="cluster_2">

<polygon fill="none" stroke="black" points="31.36,-64 31.36,-116 259.36,-116 259.36,-64 31.36,-64"/>
</g>
<!-- Harya_TMS -->
<g id="node1" class="node" pointer-events="visible" data-name="Harya_TMS">

<ellipse fill="none" stroke="black" cx="487.36" cy="-234" rx="59.12" ry="18"/>
<text text-anchor="middle" x="487.36" y="-229.8" font-family="Times,serif" font-size="14.00">Harya_TMS</text>
</g>
<!-- Start -->
<g id="node2" class="node" pointer-events="visible" data-name="Start">

<ellipse fill="none" stroke="black" cx="594.36" cy="-234" rx="29.05" ry="18"/>
<text text-anchor="middle" x="594.36" y="-229.8" font-family="Times,serif" font-size="14.00">Start</text>
</g>
<!-- Road -->
<g id="node3" class="node" pointer-events="visible" data-name="Road">

<ellipse fill="none" stroke="black" cx="257.36" cy="-162" rx="31.34" ry="18"/>
<text text-anchor="middle" x="257.36" y="-157.8" font-family="Times,serif" font-size="14.00">Road</text>
</g>
<!-- Start&#45;&gt;Road -->
<g id="edge1" class="edge" data-name="Start-&gt;Road">

<path fill="none" stroke="black" d="M577.05,-219.31C570.6,-214.93 562.98,-210.56 555.36,-208 446.32,-171.42 406.6,-223.96 297.36,-188 293.31,-186.67 289.25,-184.84 285.35,-182.78"/>
<polygon fill="black" stroke="black" points="287.23,-179.82 276.85,-177.72 283.65,-185.84 287.23,-179.82"/>
</g>
<!-- End -->
<g id="node4" class="node" pointer-events="visible" data-name="End">

<ellipse fill="none" stroke="black" cx="224.36" cy="-90" rx="27" ry="18"/>
<text text-anchor="middle" x="224.36" y="-85.8" font-family="Times,serif" font-size="14.00">End</text>
</g>
<!-- Road&#45;&gt;End -->
<g id="edge2" class="edge" data-name="Road-&gt;End">

<path fill="none" stroke="black" d="M249.53,-144.41C245.79,-136.48 241.22,-126.78 237.01,-117.84"/>
<polygon fill="black" stroke="black" points="240.2,-116.39 232.76,-108.84 233.86,-119.38 240.2,-116.39"/>
</g>
<!-- Start_Condition -->
<g id="node5" class="node" pointer-events="visible" data-name="Start_Condition">

<ellipse fill="none" stroke="black" cx="714.36" cy="-234" rx="72.97" ry="18"/>
<text text-anchor="middle" x="714.36" y="-229.8" font-family="Times,serif" font-size="14.00">Start_Condition</text>
</g>
<!-- BOL -->
<g id="node6" class="node" pointer-events="visible" data-name="BOL">

<ellipse fill="none" stroke="black" cx="642.36" cy="-162" rx="30.2" ry="18"/>
<text text-anchor="middle" x="642.36" y="-157.8" font-family="Times,serif" font-size="14.00">BOL</text>
</g>
<!-- Start_Condition&#45;&gt;BOL -->
<g id="edge3" class="edge" data-name="Start_Condition-&gt;BOL">

<path fill="none" stroke="black" d="M696.93,-216.05C687.56,-206.95 675.89,-195.6 665.75,-185.74"/>
<polygon fill="black" stroke="black" points="668.36,-183.4 658.75,-178.94 663.48,-188.42 668.36,-183.4"/>
</g>
<!-- CAL -->
<g id="node7" class="node" pointer-events="visible" data-name="CAL">

<ellipse fill="none" stroke="black" cx="790.36" cy="-162" rx="30.2" ry="18"/>
<text text-anchor="middle" x="790.36" y="-157.8" font-family="Times,serif" font-size="14.00">CAL</text>
</g>
<!-- Start_Condition&#45;&gt;CAL -->
<g id="edge4" class="edge" data-name="Start_Condition-&gt;CAL">

<path fill="none" stroke="black" d="M732.37,-216.41C742.48,-207.1 755.23,-195.35 766.2,-185.24"/>
<polygon fill="black" stroke="black" points="768.44,-187.95 773.42,-178.6 763.7,-182.8 768.44,-187.95"/>
</g>
<!-- CC -->
<g id="node8" class="node" pointer-events="visible" data-name="CC">

<ellipse fill="none" stroke="black" cx="1006.36" cy="-162" rx="27" ry="18"/>
<text text-anchor="middle" x="1006.36" y="-157.8" font-family="Times,serif" font-size="14.00">CC</text>
</g>
<!-- Start_Condition&#45;&gt;CC -->
<g id="edge5" class="edge" data-name="Start_Condition-&gt;CC">

<path fill="none" stroke="black" d="M765.22,-220.81C823.85,-206.75 918.76,-184 970.28,-171.65"/>
<polygon fill="black" stroke="black" points="970.81,-175.12 979.72,-169.39 969.18,-168.31 970.81,-175.12"/>
</g>
<!-- 1 -->
<g id="node9" class="node" pointer-events="visible" data-name="1">

<ellipse fill="none" stroke="black" cx="538.36" cy="-90" rx="27" ry="18"/>
<text text-anchor="middle" x="538.36" y="-85.8" font-family="Times,serif" font-size="14.00">1</text>
</g>
<!-- BOL&#45;&gt;1 -->
<g id="edge6" class="edge" data-name="BOL-&gt;1">

<path fill="none" stroke="black" d="M622.64,-148.12C609.02,-139.18 590.53,-126.96 574.36,-116 571.64,-114.16 568.82,-112.23 566,-110.29"/>
<polygon fill="black" stroke="black" points="568.07,-107.47 557.86,-104.66 564.09,-113.23 568.07,-107.47"/>
</g>
<!-- 2 -->
<g id="node10" class="node" pointer-events="visible" data-name="2">

<ellipse fill="none" stroke="black" cx="610.36" cy="-90" rx="27" ry="18"/>
<text text-anchor="middle" x="610.36" y="-85.8" font-family="Times,serif" font-size="14.00">2</text>
</g>
<!-- BOL&#45;&gt;2 -->
<g id="edge7" class="edge" data-name="BOL-&gt;2">

<path fill="none" stroke="black" d="M634.77,-144.41C631.15,-136.48 626.71,-126.78 622.62,-117.84"/>
<polygon fill="black" stroke="black" points="625.85,-116.49 618.51,-108.85 619.49,-119.4 625.85,-116.49"/>
</g>
<!-- 3 -->
<g id="node11" class="node" pointer-events="visible" data-name="3">

<ellipse fill="none" stroke="black" cx="682.36" cy="-90" rx="27" ry="18"/>
<text text-anchor="middle" x="682.36" y="-85.8" font-family="Times,serif" font-size="14.00">3</text>
</g>
<!-- BOL&#45;&gt;3 -->
<g id="edge8" class="edge" data-name="BOL-&gt;3">

<path fill="none" stroke="black" d="M651.83,-144.41C656.53,-136.19 662.32,-126.06 667.58,-116.85"/>
<polygon fill="black" stroke="black" points="670.55,-118.72 672.47,-108.3 664.47,-115.25 670.55,-118.72"/>
</g>
<!-- 4 -->
<g id="node12" class="node" pointer-events="visible" data-name="4">

<ellipse fill="none" stroke="black" cx="754.36" cy="-90" rx="27" ry="18"/>
<text text-anchor="middle" x="754.36" y="-85.8" font-family="Times,serif" font-size="14.00">4</text>
</g>
<!-- CAL&#45;&gt;4 -->
<g id="edge9" class="edge" data-name="CAL-&gt;4">

<path fill="none" stroke="black" d="M781.82,-144.41C777.7,-136.39 772.65,-126.57 768.01,-117.54"/>
<polygon fill="black" stroke="black" points="771.2,-116.11 763.52,-108.82 764.98,-119.31 771.2,-116.11"/>
</g>
<!-- 5 -->
<g id="node13" class="node" pointer-events="visible" data-name="5">

<ellipse fill="none" stroke="black" cx="826.36" cy="-90" rx="27" ry="18"/>
<text text-anchor="middle" x="826.36" y="-85.8" font-family="Times,serif" font-size="14.00">5</text>
</g>
<!-- CAL&#45;&gt;5 -->
<g id="edge10" class="edge" data-name="CAL-&gt;5">

<path fill="none" stroke="black" d="M798.89,-144.41C803.01,-136.39 808.06,-126.57 812.7,-117.54"/>
<polygon fill="black" stroke="black" points="815.73,-119.31 817.19,-108.82 809.51,-116.11 815.73,-119.31"/>
</g>
<!-- 6 -->
<g id="node14" class="node" pointer-events="visible" data-name="6">

<ellipse fill="none" stroke="black" cx="898.36" cy="-90" rx="27" ry="18"/>
<text text-anchor="middle" x="898.36" y="-85.8" font-family="Times,serif" font-size="14.00">6</text>
</g>
<!-- CAL&#45;&gt;6 -->
<g id="edge11" class="edge" data-name="CAL-&gt;6">

<path fill="none" stroke="black" d="M811.01,-148.46C825.49,-139.57 845.25,-127.28 862.36,-116 865.25,-114.09 868.25,-112.07 871.23,-110.04"/>
<polygon fill="black" stroke="black" points="873.03,-113.05 879.28,-104.49 869.06,-107.29 873.03,-113.05"/>
</g>
<!-- 7 -->
<g id="node15" class="node" pointer-events="visible" data-name="7">

<ellipse fill="none" stroke="black" cx="970.36" cy="-90" rx="27" ry="18"/>
<text text-anchor="middle" x="970.36" y="-85.8" font-family="Times,serif" font-size="14.00">7</text>
</g>
<!-- CC&#45;&gt;7 -->
<g id="edge12" class="edge" data-name="CC-&gt;7">

<path fill="none" stroke="black" d="M998.01,-144.76C993.78,-136.55 988.55,-126.37 983.77,-117.09"/>
<polygon fill="black" stroke="black" points="987.04,-115.79 979.35,-108.49 980.81,-118.99 987.04,-115.79"/>
</g>
<!-- 8 -->
<g id="node16" class="node" pointer-events="visible" data-name="8">

<ellipse fill="none" stroke="black" cx="1042.36" cy="-90" rx="27" ry="18"/>
<text text-anchor="middle" x="1042.36" y="-85.8" font-family="Times,serif" font-size="14.00">8</text>
</g>
<!-- CC&#45;&gt;8 -->
<g id="edge13" class="edge" data-name="CC-&gt;8">

<path fill="none" stroke="black" d="M1014.7,-144.76C1018.93,-136.55 1024.16,-126.37 1028.94,-117.09"/>
<polygon fill="black" stroke="black" points="1031.9,-118.99 1033.36,-108.49 1025.67,-115.79 1031.9,-118.99"/>
</g>
<!-- 9 -->
<g id="node17" class="node" pointer-events="visible" data-name="9">

<ellipse fill="none" stroke="black" cx="1114.36" cy="-90" rx="27" ry="18" style=""/>
<text text-anchor="middle" x="1114.36" y="-85.8" font-family="Times,serif" font-size="14.00" style="">9</text>
</g>
<!-- CC&#45;&gt;9 -->
<g id="edge14" class="edge" data-name="CC-&gt;9">

<path fill="none" stroke="black" d="M1025.77,-149.22C1040.35,-140.28 1060.76,-127.6 1078.36,-116 1081.25,-114.09 1084.25,-112.07 1087.23,-110.04"/>
<polygon fill="black" stroke="black" points="1089.03,-113.05 1095.28,-104.49 1085.06,-107.29 1089.03,-113.05"/>
</g>
<!-- Road_Condition -->
<g id="node18" class="node" pointer-events="visible" data-name="Road_Condition">

<ellipse fill="none" stroke="black" cx="381.36" cy="-162" rx="74.76" ry="18"/>
<text text-anchor="middle" x="381.36" y="-157.8" font-family="Times,serif" font-size="14.00">Road_Condition</text>
</g>
<!-- OTD -->
<g id="node19" class="node" pointer-events="visible" data-name="OTD">

<ellipse fill="none" stroke="black" cx="300.36" cy="-90" rx="30.77" ry="18"/>
<text text-anchor="middle" x="300.36" y="-85.8" font-family="Times,serif" font-size="14.00">OTD</text>
</g>
<!-- Road_Condition&#45;&gt;OTD -->
<g id="edge15" class="edge" data-name="Road_Condition-&gt;OTD">

<path fill="none" stroke="black" d="M362.16,-144.41C351.27,-135 337.52,-123.12 325.75,-112.94"/>
<polygon fill="black" stroke="black" points="328.22,-110.45 318.36,-106.56 323.64,-115.75 328.22,-110.45"/>
</g>
<!-- DAU -->
<g id="node20" class="node" pointer-events="visible" data-name="DAU">

<ellipse fill="none" stroke="black" cx="381.36" cy="-90" rx="31.92" ry="18"/>
<text text-anchor="middle" x="381.36" y="-85.8" font-family="Times,serif" font-size="14.00">DAU</text>
</g>
<!-- Road_Condition&#45;&gt;DAU -->
<g id="edge16" class="edge" data-name="Road_Condition-&gt;DAU">

<path fill="none" stroke="black" d="M381.36,-143.7C381.36,-136.41 381.36,-127.73 381.36,-119.54"/>
<polygon fill="black" stroke="black" points="384.86,-119.62 381.36,-109.62 377.86,-119.62 384.86,-119.62"/>
</g>
<!-- ADR -->
<g id="node21" class="node" pointer-events="visible" data-name="ADR">

<ellipse fill="none" stroke="black" cx="462.36" cy="-90" rx="31.35" ry="18"/>
<text text-anchor="middle" x="462.36" y="-85.8" font-family="Times,serif" font-size="14.00">ADR</text>
</g>
<!-- Road_Condition&#45;&gt;ADR -->
<g id="edge17" class="edge" data-name="Road_Condition-&gt;ADR">

<path fill="none" stroke="black" d="M400.55,-144.41C411.44,-135 425.19,-123.12 436.96,-112.94"/>
<polygon fill="black" stroke="black" points="439.07,-115.75 444.35,-106.56 434.5,-110.45 439.07,-115.75"/>
</g>
<!-- 10 -->

<g id="node22" class="node" pointer-events="visible" data-name="End_Condition" data-comment="10">

<ellipse fill="none" stroke="black" cx="109.36" cy="-90" rx="70.11" ry="18"/>
<text text-anchor="middle" x="109.36" y="-85.8" font-family="Times,serif" font-size="14.00">End_Condition</text>
</g><g id="node23" class="node" pointer-events="visible" data-name="POD" data-comment="10">

<ellipse fill="none" stroke="black" cx="30.36" cy="-18" rx="30.21" ry="18"/>
<text text-anchor="middle" x="30.36" y="-13.8" font-family="Times,serif" font-size="14.00">POD</text>
</g><g id="edge18" class="edge" data-name="End_Condition-&gt;POD" data-comment="10">

<path fill="none" stroke="black" d="M90.63,-72.41C80.02,-63 66.6,-51.12 55.12,-40.94"/>
<polygon fill="black" stroke="black" points="57.74,-38.59 47.93,-34.57 53.1,-43.83 57.74,-38.59"/>
</g><g id="node24" class="node" pointer-events="visible" data-name="BDC" data-comment="10">

<ellipse fill="none" stroke="black" cx="109.36" cy="-18" rx="30.79" ry="18"/>
<text text-anchor="middle" x="109.36" y="-13.8" font-family="Times,serif" font-size="14.00">BDC</text>
</g><g id="edge19" class="edge" data-name="End_Condition-&gt;BDC" data-comment="10">

<path fill="none" stroke="black" d="M109.36,-71.7C109.36,-64.41 109.36,-55.73 109.36,-47.54"/>
<polygon fill="black" stroke="black" points="112.86,-47.62 109.36,-37.62 105.86,-47.62 112.86,-47.62"/>
</g><!-- FS -->
<g id="node25" class="node" pointer-events="visible" data-name="FS">

<ellipse fill="none" stroke="black" cx="185.36" cy="-18" rx="27" ry="18"/>
<text text-anchor="middle" x="185.36" y="-13.8" font-family="Times,serif" font-size="14.00">FS</text>
</g>
<!-- End_Condition&#45;&gt;FS -->
<!-- End_Condition&#45;&gt;FS -->
<!-- End_Condition&#45;&gt;FS -->
<!-- End_Condition&#45;&gt;FS -->
<!-- End_Condition&#45;&gt;FS -->
<g id="edge20" class="edge" data-name="End_Condition-&gt;FS">

<path fill="none" stroke="black" d="M127.37,-72.41C137.62,-62.97 150.58,-51.03 161.65,-40.83"/>
<polygon fill="black" stroke="black" points="163.94,-43.48 168.92,-34.13 159.2,-38.33 163.94,-43.48"/>
</g>




</g>
</svg>